<svg width="120" height="31" viewBox="0 0 120 31" fill="none" xmlns="http://www.w3.org/2000/svg">
<path d="M119.333 27.4244C119.333 29.0764 117.806 30.4146 115.916 30.4146H4.08812C2.1995 30.4146 0.666504 29.0764 0.666504 27.4244V3.57852C0.666504 1.92727 2.1995 0.584412 4.08812 0.584412H115.915C117.806 0.584412 119.332 1.92727 119.332 3.57852L119.333 27.4244Z" fill="black"/>
<path d="M115.556 0.620966C117.613 0.620966 119.288 2.08087 119.288 3.875V27.125C119.288 28.9191 117.613 30.379 115.556 30.379H4.44444C2.38667 30.379 0.712222 28.9191 0.712222 27.125V3.875C0.712222 2.08087 2.38667 0.620966 4.44444 0.620966H115.556ZM115.556 -1.90735e-06H4.44444C2.00111 -1.90735e-06 0 1.74472 0 3.875V27.125C0 29.2553 2.00111 31 4.44444 31H115.556C117.999 31 120 29.2553 120 27.125V3.875C120 1.74472 117.999 -1.90735e-06 115.556 -1.90735e-06Z" fill="#A6A6A6"/>
<path d="M26.78 15.332C26.7542 12.8342 29.1258 11.619 29.2342 11.5624C27.8911 9.85513 25.8093 9.62185 25.0778 9.60325C23.3293 9.44283 21.6333 10.5154 20.7426 10.5154C19.8342 10.5154 18.4626 9.61875 16.9844 9.6451C15.0822 9.67068 13.3026 10.6309 12.3266 12.122C10.3124 15.1623 11.8146 19.6302 13.7444 22.0877C14.7098 23.2913 15.8378 24.6351 17.3142 24.5879C18.7586 24.5359 19.2982 23.785 21.0413 23.785C22.7684 23.785 23.2751 24.5879 24.7809 24.5576C26.3311 24.5359 27.3071 23.3486 28.2386 22.1342C29.3542 20.7547 29.8022 19.3961 29.82 19.3264C29.7835 19.3155 26.8093 18.3259 26.78 15.332Z" fill="white"/>
<path d="M23.9355 7.9866C24.7124 7.13953 25.244 5.9871 25.0964 4.81763C23.972 4.86103 22.5658 5.49575 21.756 6.32423C21.0395 7.05428 20.3995 8.25088 20.5649 9.37618C21.828 9.45833 23.1249 8.8205 23.9355 7.9866Z" fill="white"/>
<path d="M47.6854 24.4153H45.6667L44.561 21.3858H40.7174L39.6641 24.4153H37.6987L41.5067 14.1016H43.8587L47.6854 24.4153ZM44.2276 20.1148L43.2276 17.4217C43.1218 17.1465 42.9236 16.4986 42.6312 15.4787H42.5956C42.4792 15.9174 42.2916 16.5653 42.0338 17.4217L41.0516 20.1148H44.2276Z" fill="white"/>
<path d="M57.4779 20.6055C57.4779 21.8703 57.0859 22.87 56.3019 23.604C55.5997 24.2573 54.7277 24.5836 53.6868 24.5836C52.5632 24.5836 51.7561 24.2317 51.2646 23.528H51.229V27.4456H49.3339V19.4267C49.3339 18.6316 49.3099 17.8155 49.2637 16.9785H50.9303L51.0361 18.1573H51.0717C51.7037 17.2691 52.6628 16.8258 53.9499 16.8258C54.9561 16.8258 55.7961 17.1722 56.4681 17.8659C57.1419 18.5603 57.4779 19.4732 57.4779 20.6055ZM55.5472 20.6659C55.5472 19.9421 55.3606 19.3453 54.9854 18.8757C54.5757 18.3859 54.0254 18.141 53.3357 18.141C52.8681 18.141 52.4432 18.2774 52.0637 18.5463C51.6832 18.8176 51.4343 19.1717 51.3179 19.6104C51.2592 19.815 51.2299 19.9824 51.2299 20.1141V21.3541C51.2299 21.8951 51.4201 22.3516 51.8006 22.7243C52.181 23.0971 52.6752 23.2831 53.2832 23.2831C53.997 23.2831 54.5526 23.0429 54.9499 22.5639C55.3481 22.0842 55.5472 21.4518 55.5472 20.6659Z" fill="white"/>
<path d="M67.289 20.6055C67.289 21.8703 66.897 22.87 66.1121 23.604C65.4108 24.2573 64.5388 24.5836 63.4979 24.5836C62.3743 24.5836 61.5672 24.2317 61.0766 23.528H61.041V27.4456H59.1459V19.4267C59.1459 18.6316 59.1219 17.8155 59.0757 16.9785H60.7423L60.8481 18.1573H60.8837C61.5148 17.2691 62.4739 16.8258 63.7619 16.8258C64.7672 16.8258 65.6072 17.1722 66.281 17.8659C66.9521 18.5603 67.289 19.4732 67.289 20.6055ZM65.3583 20.6659C65.3583 19.9421 65.1708 19.3453 64.7957 18.8757C64.3859 18.3859 63.8375 18.141 63.1468 18.141C62.6784 18.141 62.2544 18.2774 61.8739 18.5463C61.4935 18.8176 61.2455 19.1717 61.129 19.6104C61.0712 19.815 61.041 19.9824 61.041 20.1141V21.3541C61.041 21.8951 61.2312 22.3516 61.6099 22.7243C61.9903 23.0963 62.4846 23.2831 63.0944 23.2831C63.8081 23.2831 64.3637 23.0429 64.761 22.5639C65.1592 22.0842 65.3583 21.4518 65.3583 20.6659Z" fill="white"/>
<path d="M78.2571 21.523C78.2571 22.4003 77.9078 23.114 77.2065 23.6651C76.4358 24.2672 75.3629 24.5679 73.9842 24.5679C72.7113 24.5679 71.6909 24.354 70.9185 23.9255L71.3576 22.5483C72.1896 22.9869 73.1025 23.207 74.0971 23.207C74.8109 23.207 75.3665 23.066 75.7656 22.7854C76.1629 22.5049 76.3611 22.1282 76.3611 21.6586C76.3611 21.2401 76.1976 20.8875 75.8696 20.6015C75.5433 20.3155 74.9985 20.0497 74.2376 19.804C72.1665 19.1305 71.1318 18.144 71.1318 16.8466C71.1318 15.9988 71.4945 15.3036 72.2207 14.7626C72.9442 14.2209 73.9096 13.9504 75.1167 13.9504C76.1931 13.9504 77.0873 14.114 77.8011 14.4402L77.3273 15.7872C76.6607 15.471 75.9069 15.3129 75.0633 15.3129C74.3967 15.3129 73.8758 15.4563 73.5025 15.7415C73.1869 15.9964 73.0287 16.3072 73.0287 16.6753C73.0287 17.083 73.2091 17.4201 73.5718 17.6852C73.8873 17.9301 74.4607 18.1951 75.2927 18.4811C76.3105 18.8384 77.058 19.2561 77.5389 19.735C78.018 20.2124 78.2571 20.81 78.2571 21.523Z" fill="white"/>
<path d="M84.5228 18.2183H82.4339V21.8291C82.4339 22.7474 82.8019 23.2062 83.5397 23.2062C83.8783 23.2062 84.1592 23.1807 84.3815 23.1295L84.4339 24.3842C84.0606 24.5059 83.569 24.5671 82.9601 24.5671C82.2117 24.5671 81.6268 24.368 81.2046 23.9704C80.7841 23.572 80.5726 22.904 80.5726 21.9655V18.2168H79.3281V16.9768H80.5726V15.6151L82.4339 15.1253V16.9768H84.5228V18.2183Z" fill="white"/>
<path d="M93.9479 20.6356C93.9479 21.7787 93.5728 22.7173 92.8244 23.4512C92.0395 24.2068 90.9977 24.5834 89.699 24.5834C88.4475 24.5834 87.451 24.2215 86.7079 23.4977C85.9648 22.7738 85.5933 21.8601 85.5933 20.7588C85.5933 19.6064 85.9755 18.6625 86.7426 17.9285C87.5079 17.1938 88.5408 16.8265 89.8395 16.8265C91.091 16.8265 92.0981 17.1884 92.8581 17.913C93.5853 18.616 93.9479 19.5235 93.9479 20.6356ZM91.9817 20.6891C91.9817 20.0032 91.8137 19.415 91.4733 18.9244C91.0759 18.3308 90.5079 18.0347 89.7719 18.0347C89.0101 18.0347 88.4315 18.3315 88.0342 18.9244C87.6937 19.4158 87.5257 20.0133 87.5257 20.7201C87.5257 21.406 87.6937 21.9942 88.0342 22.484C88.4439 23.0776 89.0164 23.3737 89.755 23.3737C90.4786 23.3737 91.0466 23.0714 91.4564 22.4685C91.8057 21.9686 91.9817 21.3742 91.9817 20.6891Z" fill="white"/>
<path d="M100.109 18.4316C99.9219 18.4014 99.7219 18.3859 99.5121 18.3859C98.8455 18.3859 98.3299 18.6052 97.9672 19.0446C97.6517 19.4321 97.4935 19.9219 97.4935 20.5133V24.4154H95.5992L95.617 19.3205C95.617 18.4634 95.593 17.683 95.5459 16.9793H97.1966L97.2659 18.4022H97.3184C97.5184 17.9131 97.8339 17.5194 98.2659 17.2242C98.6881 16.9583 99.1441 16.8258 99.6357 16.8258C99.8108 16.8258 99.969 16.8367 100.109 16.856V18.4316Z" fill="white"/>
<path d="M108.585 20.3452C108.585 20.6412 108.563 20.8908 108.516 21.0946H102.831C102.853 21.8293 103.128 22.3912 103.656 22.7787C104.135 23.1251 104.754 23.2987 105.515 23.2987C106.357 23.2987 107.125 23.1817 107.816 22.9468L108.112 24.0939C107.305 24.4008 106.352 24.5534 105.253 24.5534C103.93 24.5534 102.892 24.214 102.136 23.5359C101.383 22.8577 101.005 21.9471 101.005 20.8047C101.005 19.6833 101.356 18.7495 102.059 18.0047C102.795 17.2095 103.79 16.812 105.041 16.812C106.271 16.812 107.201 17.2095 107.833 18.0047C108.334 18.6363 108.585 19.4175 108.585 20.3452ZM106.778 19.9166C106.791 19.4268 106.667 19.0036 106.41 18.6464C106.082 18.1868 105.578 17.9574 104.9 17.9574C104.28 17.9574 103.776 18.1814 103.392 18.6309C103.076 18.9882 102.888 19.4167 102.831 19.9158H106.778V19.9166Z" fill="white"/>
<path d="M43.5987 7.75699C43.5987 8.66916 43.2849 9.35581 42.6582 9.81694C42.0778 10.2424 41.2529 10.4555 40.1844 10.4555C39.6547 10.4555 39.2013 10.4354 38.8218 10.3951V5.41106C39.3169 5.34131 39.8502 5.30566 40.4262 5.30566C41.444 5.30566 42.2111 5.49864 42.7284 5.88459C43.308 6.32091 43.5987 6.94479 43.5987 7.75699ZM42.6164 7.77946C42.6164 7.18814 42.4369 6.73476 42.0778 6.41856C41.7187 6.10314 41.1942 5.94504 40.5036 5.94504C40.2102 5.94504 39.9604 5.96209 39.7533 5.99774V9.78671C39.868 9.80221 40.0778 9.80919 40.3827 9.80919C41.0956 9.80919 41.6458 9.63636 42.0333 9.29071C42.4209 8.94506 42.6164 8.44131 42.6164 7.77946Z" fill="white"/>
<path d="M48.8062 8.55353C48.8062 9.1154 48.6222 9.57575 48.2541 9.9369C47.8684 10.3081 47.3573 10.4934 46.719 10.4934C46.1039 10.4934 45.6142 10.3159 45.2488 9.95938C44.8844 9.60365 44.7021 9.15493 44.7021 8.61398C44.7021 8.04823 44.8897 7.584 45.2666 7.22363C45.6435 6.86325 46.1501 6.68268 46.7884 6.68268C47.4035 6.68268 47.8977 6.86015 48.2719 7.21588C48.6275 7.56153 48.8062 8.00793 48.8062 8.55353ZM47.8399 8.57988C47.8399 8.24275 47.7564 7.95368 47.5902 7.71265C47.3946 7.42125 47.1164 7.27555 46.7546 7.27555C46.3804 7.27555 46.0959 7.42125 45.9004 7.71265C45.7333 7.95368 45.6506 8.2474 45.6506 8.5946C45.6506 8.93173 45.7341 9.2208 45.9004 9.46183C46.1021 9.75323 46.383 9.89893 46.7457 9.89893C47.1013 9.89893 47.3804 9.7509 47.5813 9.45408C47.7537 9.2084 47.8399 8.917 47.8399 8.57988Z" fill="white"/>
<path d="M55.7899 6.7569L54.4787 10.4102H53.6254L53.0823 8.82382C52.9445 8.4278 52.8325 8.0341 52.7454 7.6435H52.7285C52.6476 8.04495 52.5356 8.43787 52.3916 8.82382L51.8147 10.4102H50.9516L49.7188 6.7569H50.6761L51.1499 8.49367C51.2645 8.90442 51.3587 9.2958 51.4343 9.66625H51.4512C51.5205 9.3609 51.6352 8.97185 51.797 8.50142L52.3916 6.75767H53.1507L53.7205 8.46422C53.8583 8.8804 53.9703 9.28107 54.0565 9.66702H54.0823C54.1454 9.29115 54.2405 8.89047 54.3667 8.46422L54.8752 6.75767H55.7899V6.7569Z" fill="white"/>
<path d="M60.6182 10.4107H59.6866V8.31824C59.6866 7.67344 59.4057 7.35104 58.8422 7.35104C58.5657 7.35104 58.3426 7.43939 58.1693 7.61686C57.9978 7.79434 57.9106 8.00359 57.9106 8.24306V10.41H56.9791V7.80131C56.9791 7.48046 56.9675 7.13249 56.9453 6.75584H57.764L57.8075 7.32701H57.8333C57.9418 7.14954 58.1035 7.00306 58.316 6.88604C58.5684 6.74964 58.8511 6.68066 59.1604 6.68066C59.5515 6.68066 59.8769 6.79071 60.1355 7.01159C60.4573 7.28206 60.6182 7.68584 60.6182 8.22214V10.4107Z" fill="white"/>
<path d="M63.1865 10.4105H62.2559V5.08087H63.1865V10.4105Z" fill="white"/>
<path d="M68.6719 8.55353C68.6719 9.1154 68.4879 9.57575 68.1199 9.9369C67.7341 10.3081 67.2221 10.4934 66.5848 10.4934C65.9688 10.4934 65.479 10.3159 65.1145 9.95938C64.7501 9.60365 64.5679 9.15493 64.5679 8.61398C64.5679 8.04823 64.7554 7.584 65.1323 7.22363C65.5092 6.86325 66.0159 6.68268 66.6532 6.68268C67.2692 6.68268 67.7625 6.86015 68.1376 7.21588C68.4932 7.56153 68.6719 8.00793 68.6719 8.55353ZM67.7048 8.57988C67.7048 8.24275 67.6212 7.95368 67.455 7.71265C67.2603 7.42125 66.9812 7.27555 66.6203 7.27555C66.2452 7.27555 65.9608 7.42125 65.7661 7.71265C65.599 7.95368 65.5163 8.2474 65.5163 8.5946C65.5163 8.93173 65.5999 9.2208 65.7661 9.46183C65.9679 9.75323 66.2488 9.89893 66.6114 9.89893C66.967 9.89893 67.2452 9.7509 67.4461 9.45408C67.6194 9.2084 67.7048 8.917 67.7048 8.57988Z" fill="white"/>
<path d="M73.1812 10.4104H72.3448L72.2754 9.9896H72.2496C71.9634 10.3252 71.5554 10.4934 71.0257 10.4934C70.6301 10.4934 70.3101 10.3825 70.0692 10.1624C69.8505 9.96248 69.7412 9.7137 69.7412 9.41843C69.7412 8.97203 69.9545 8.6318 70.3839 8.3962C70.8123 8.1606 71.415 8.04513 72.191 8.05055V7.98235C72.191 7.50108 71.9012 7.26083 71.3208 7.26083C70.9074 7.26083 70.543 7.3515 70.2283 7.5313L70.039 6.9981C70.4283 6.78808 70.9092 6.68268 71.4763 6.68268C72.5714 6.68268 73.1208 7.18643 73.1208 8.19393V9.53933C73.1208 9.90435 73.1412 10.195 73.1812 10.4104ZM72.2141 9.15493V8.5915C71.1865 8.576 70.6728 8.82168 70.6728 9.32775C70.6728 9.5184 70.7314 9.661 70.8514 9.75633C70.9714 9.85165 71.1243 9.89893 71.3065 9.89893C71.511 9.89893 71.7021 9.84235 71.8763 9.72998C72.0514 9.61683 72.159 9.47345 72.199 9.29753C72.2088 9.258 72.2141 9.20995 72.2141 9.15493Z" fill="white"/>
<path d="M78.4746 10.4105H77.6479L77.6044 9.82387H77.5786C77.3146 10.2703 76.8648 10.4935 76.2328 10.4935C75.7279 10.4935 75.3075 10.3206 74.9742 9.975C74.6408 9.62935 74.4746 9.18062 74.4746 8.6296C74.4746 8.03827 74.6551 7.55932 75.0177 7.19352C75.3688 6.85252 75.799 6.68202 76.311 6.68202C76.8737 6.68202 77.2675 6.8471 77.4915 7.17802H77.5093V5.08087H78.4417V9.4263C78.4417 9.78202 78.4524 10.1098 78.4746 10.4105ZM77.5093 8.86985V8.2607C77.5093 8.1553 77.5004 8.07005 77.4835 8.00495C77.431 7.80965 77.3182 7.64535 77.1466 7.51282C76.9733 7.3803 76.7644 7.31365 76.5235 7.31365C76.1759 7.31365 75.9039 7.43377 75.7039 7.6748C75.5057 7.91582 75.4053 8.2235 75.4053 8.59937C75.4053 8.96052 75.5004 9.25347 75.6915 9.479C75.8933 9.71925 76.1653 9.83937 76.5057 9.83937C76.8115 9.83937 77.0559 9.7394 77.2417 9.53867C77.4213 9.35345 77.5093 9.13025 77.5093 8.86985Z" fill="white"/>
<path d="M86.4419 8.55353C86.4419 9.1154 86.2579 9.57575 85.8899 9.9369C85.5041 10.3081 84.9939 10.4934 84.3548 10.4934C83.7406 10.4934 83.2508 10.3159 82.8846 9.95938C82.5201 9.60365 82.3379 9.15493 82.3379 8.61398C82.3379 8.04823 82.5254 7.584 82.9023 7.22363C83.2792 6.86325 83.7859 6.68268 84.425 6.68268C85.0392 6.68268 85.5343 6.86015 85.9077 7.21588C86.2632 7.56153 86.4419 8.00793 86.4419 8.55353ZM85.4766 8.57988C85.4766 8.24275 85.393 7.95368 85.2268 7.71265C85.0303 7.42125 84.753 7.27555 84.3903 7.27555C84.017 7.27555 83.7326 7.42125 83.5361 7.71265C83.369 7.95368 83.2863 8.2474 83.2863 8.5946C83.2863 8.93173 83.3699 9.2208 83.5361 9.46183C83.7379 9.75323 84.0188 9.89893 84.3814 9.89893C84.737 9.89893 85.017 9.7509 85.2179 9.45408C85.3894 9.2084 85.4766 8.917 85.4766 8.57988Z" fill="white"/>
<path d="M91.4518 10.4107H90.5211V8.31824C90.5211 7.67344 90.2402 7.35104 89.6758 7.35104C89.3993 7.35104 89.1762 7.43939 89.0038 7.61686C88.8313 7.79434 88.7451 8.00359 88.7451 8.24306V10.41H87.8127V7.80131C87.8127 7.48046 87.802 7.13249 87.7798 6.75584H88.5976L88.6411 7.32701H88.6669C88.7762 7.14954 88.938 7.00306 89.1496 6.88604C89.4029 6.74964 89.6847 6.68066 89.9949 6.68066C90.3851 6.68066 90.7104 6.79071 90.9691 7.01159C91.2918 7.28206 91.4518 7.68584 91.4518 8.22214V10.4107Z" fill="white"/>
<path d="M97.72 7.36551H96.6942V9.14026C96.6942 9.59131 96.8764 9.81684 97.2373 9.81684C97.4044 9.81684 97.5431 9.80444 97.6524 9.77886L97.6764 10.395C97.4924 10.4554 97.2506 10.4857 96.9529 10.4857C96.5849 10.4857 96.2986 10.388 96.0915 10.1927C95.8835 9.99741 95.7804 9.66881 95.7804 9.20769V7.36551H95.168V6.75714H95.7804V6.08754L96.6933 5.84729V6.75637H97.7191V7.36551H97.72Z" fill="white"/>
<path d="M102.65 10.4105H101.718V8.33355C101.718 7.67867 101.437 7.35085 100.874 7.35085C100.442 7.35085 100.147 7.54072 99.9855 7.92047C99.9579 8.0003 99.9419 8.09795 99.9419 8.21265V10.4098H99.0112V5.08087H99.9419V7.28265H99.9597C100.253 6.88197 100.673 6.68202 101.218 6.68202C101.604 6.68202 101.923 6.79207 102.177 7.01295C102.492 7.28807 102.65 7.69727 102.65 8.23822V10.4105Z" fill="white"/>
<path d="M107.739 8.41125C107.739 8.55695 107.727 8.6794 107.704 8.77938H104.911C104.923 9.14052 105.056 9.41565 105.315 9.6063C105.551 9.7768 105.856 9.86205 106.23 9.86205C106.643 9.86205 107.02 9.8047 107.359 9.68922L107.505 10.2534C107.108 10.4038 106.64 10.4789 106.099 10.4789C105.45 10.4789 104.939 10.3123 104.569 9.97908C104.198 9.64583 104.014 9.19865 104.014 8.63755C104.014 8.08653 104.185 7.62772 104.531 7.26192C104.892 6.87133 105.38 6.67603 105.996 6.67603C106.599 6.67603 107.056 6.87133 107.366 7.26192C107.615 7.57192 107.739 7.95555 107.739 8.41125ZM106.85 8.20122C106.857 7.9602 106.796 7.7525 106.67 7.57735C106.508 7.35183 106.262 7.23868 105.928 7.23868C105.624 7.23868 105.376 7.34873 105.187 7.5696C105.032 7.74553 104.941 7.95555 104.911 8.20122H106.85Z" fill="white"/>
</svg>
