<svg width="36" height="15" viewBox="0 0 36 15" fill="none" xmlns="http://www.w3.org/2000/svg">
<path d="M6.40404 2.40671C5.99327 2.89211 5.33603 3.27497 4.6788 3.22028C4.59664 2.56395 4.91841 1.86661 5.29496 1.43589C5.70573 0.936811 6.42458 0.581302 7.00651 0.553955C7.07497 1.23763 6.80797 1.90763 6.40404 2.40671ZM6.99966 3.35017C6.04804 3.29548 5.23334 3.89027 4.78149 3.89027C4.32279 3.89027 3.63133 3.37752 2.87824 3.39119C1.89923 3.40487 0.988686 3.95864 0.488912 4.84058C-0.53802 6.60445 0.22191 9.21608 1.21461 10.6518C1.70069 11.3628 2.28262 12.1422 3.0494 12.1148C3.7751 12.0875 4.06264 11.6431 4.93895 11.6431C5.82211 11.6431 6.07542 12.1149 6.8422 12.1012C7.63636 12.0875 8.13614 11.3902 8.62222 10.6791C9.17676 9.87241 9.40268 9.08618 9.41638 9.04516C9.40268 9.03149 7.88283 8.45037 7.86913 6.70017C7.85544 5.23711 9.06722 4.53976 9.12199 4.49874C8.43737 3.48691 7.36936 3.37752 6.99966 3.35017ZM12.4972 1.36752V12.026H14.154V8.382H16.4474C18.5424 8.382 20.0143 6.94629 20.0143 4.86793C20.0143 2.78956 18.5698 1.36752 16.5022 1.36752H12.4972ZM14.154 2.76222H16.0641C17.5018 2.76222 18.3233 3.52793 18.3233 4.87476C18.3233 6.2216 17.5018 6.99415 16.0572 6.99415H14.154V2.76222ZM23.0403 12.108C24.081 12.108 25.0463 11.5816 25.4844 10.7475H25.5187V12.026H27.0522V6.72068C27.0522 5.18241 25.8199 4.19109 23.9235 4.19109C22.164 4.19109 20.8633 5.19609 20.8153 6.57711H22.3078C22.431 5.92078 23.0403 5.49007 23.8756 5.49007C24.8888 5.49007 25.4571 5.9618 25.4571 6.83006V7.41802L23.3895 7.54108C21.4657 7.65731 20.4251 8.44353 20.4251 9.81087C20.4251 11.1919 21.4999 12.108 23.0403 12.108ZM23.4854 10.8432C22.6022 10.8432 22.0408 10.4193 22.0408 9.76985C22.0408 9.09986 22.5817 8.71016 23.6154 8.64863L25.4571 8.53241V9.13404C25.4571 10.1322 24.6081 10.8432 23.4854 10.8432ZM29.0992 14.9247C30.715 14.9247 31.4749 14.3094 32.139 12.443L35.0486 4.29364H33.3644L31.4133 10.5903H31.379L29.4279 4.29364H27.6958L30.5027 12.0533L30.3521 12.5251C30.0988 13.3249 29.688 13.6326 28.9555 13.6326C28.8254 13.6326 28.5721 13.6189 28.4694 13.6053V14.8837C28.5652 14.9111 28.976 14.9247 29.0992 14.9247Z" fill="#FFFDFD"/>
</svg>
