<svg width="1034" height="1203" viewBox="0 0 1034 1203" fill="none" xmlns="http://www.w3.org/2000/svg">
<path d="M1033 1L11 1" stroke="#676767" stroke-width="2" stroke-dasharray="23.87 23.87"/>
<path d="M1032 608L1032 0.999969" stroke="#676767" stroke-width="2" stroke-dasharray="23.87 23.87"/>
<path d="M1032.42 1202.98L1032.41 795.227" stroke="#676767" stroke-width="2" stroke-dasharray="23.87 23.87"/>
<path d="M1032 1202H954" stroke="#676767" stroke-width="2" stroke-dasharray="23.87 23.87"/>
<path d="M7.29289 37.7071C7.68342 38.0976 8.31658 38.0976 8.70711 37.7071L15.0711 31.3431C15.4616 30.9526 15.4616 30.3195 15.0711 29.9289C14.6805 29.5384 14.0474 29.5384 13.6569 29.9289L8 35.5858L2.34315 29.9289C1.95262 29.5384 1.31946 29.5384 0.928932 29.9289C0.538408 30.3195 0.538408 30.9526 0.928932 31.3431L7.29289 37.7071ZM7 17L7 37H9L9 17H7Z" fill="#676767"/>
</svg>
