<svg width="38" height="25" viewBox="0 0 38 25" fill="none" xmlns="http://www.w3.org/2000/svg">
<path d="M28.0149 20.1616H27.8631V20.3541C28.1602 20.3463 28.4485 20.3395 28.737 20.3395C28.8835 20.3395 29.028 20.3432 29.1703 20.3469C29.3083 20.3505 29.4443 20.3541 29.5781 20.3541V20.1616H29.4424C29.2181 20.1616 29.0416 20.1616 29.0416 19.9168V14.8036C29.0416 14.7441 29.0258 14.6992 28.9767 14.6992C28.9591 14.6992 28.9187 14.7201 28.8633 14.7489L28.8631 14.749C28.8442 14.7589 28.8235 14.7696 28.8014 14.7807C28.6326 14.8702 28.2956 15.0031 27.9751 15.0992V15.2177C27.9856 15.2206 27.9959 15.2233 28.006 15.226C28.2882 15.3009 28.4001 15.3306 28.4001 15.7955V19.9168C28.4001 20.1616 28.2401 20.1616 28.0149 20.1616Z" fill="white"/>
<path d="M27.5737 16.5273H27.3737C27.2211 15.6622 26.5557 15.3139 25.6584 15.3139C24.7354 15.3139 23.3971 15.8834 23.3971 17.6596C23.3971 19.1551 24.5519 20.2284 25.7862 20.2284C26.5791 20.2284 27.238 19.725 27.398 18.9474L27.5824 18.9916L27.398 20.0725C27.0613 20.2652 26.1551 20.4653 25.6254 20.4653C23.7503 20.4653 22.5639 19.3475 22.5639 17.6825C22.5639 16.1648 24.031 15.0766 25.6023 15.0766C26.2514 15.0766 26.8765 15.2695 27.4939 15.4695L27.5737 16.5273Z" fill="white"/>
<path d="M6.00029 20.1615H5.84838V20.3541C6.14478 20.3463 6.43357 20.3394 6.72221 20.3394C6.86796 20.3394 7.01201 20.3432 7.15413 20.3469C7.29248 20.3505 7.42904 20.3541 7.5635 20.3541V20.1615H7.42777C7.20304 20.1615 7.02636 20.1615 7.02636 19.9167V17.0756C7.02636 17.0159 7.00985 16.9713 6.97055 16.9713C6.92977 16.9713 6.88238 16.9793 6.8259 17.009C6.7942 17.0313 6.3449 17.1709 5.9681 17.2755V17.3936C5.9807 17.3999 5.99298 17.4059 6.00495 17.4118C6.27512 17.5455 6.38519 17.5999 6.38519 17.9113V19.9167C6.38519 20.1615 6.22469 20.1615 6.00029 20.1615Z" fill="white"/>
<path d="M6.31319 15.462C6.31319 15.6544 6.49713 15.832 6.70601 15.832C6.92216 15.832 7.099 15.6622 7.099 15.462C7.099 15.2621 6.91407 15.1061 6.70601 15.1061C6.50589 15.1061 6.31319 15.2767 6.31319 15.462Z" fill="white"/>
<path fill-rule="evenodd" clip-rule="evenodd" d="M0.0999824 15.3815C0.436667 15.3849 0.764772 15.3882 0.764772 16.0093V19.5991C0.74182 20.0951 0.514914 20.1162 0.0481429 20.1597L0.027832 20.1616V20.3541C0.388128 20.3463 0.74149 20.3395 1.10195 20.3395C1.28645 20.3395 1.47111 20.343 1.65951 20.3465C1.85573 20.3503 2.05601 20.3541 2.26441 20.3541C5.10253 20.3541 5.56751 18.5117 5.56751 17.7784C5.56751 16.4679 4.43676 15.1882 2.36084 15.1882C2.0222 15.1882 1.72805 15.1927 1.47537 15.1967C1.28511 15.1996 1.11836 15.2022 0.973816 15.2022C0.66058 15.2022 0.340243 15.2022 0.027832 15.1882V15.3805C0.0518483 15.381 0.0759372 15.3813 0.0999824 15.3815ZM2.38444 20.1167C1.99178 20.1167 1.55041 20.0504 1.55041 19.4803V15.4548C1.58935 15.4527 1.62879 15.4495 1.67207 15.4461C1.78955 15.4368 1.93532 15.4252 2.17606 15.4252C3.72309 15.4252 4.68492 16.4241 4.68492 17.8081C4.68492 18.9107 4.11657 20.1167 2.38444 20.1167Z" fill="white"/>
<path d="M8.32537 17.9558C8.32537 17.6825 8.23687 17.6085 7.86072 17.4677V17.3271L7.91089 17.3121C8.23696 17.2141 8.55202 17.1194 8.91849 16.9713C8.94277 16.9713 8.96605 16.9861 8.96605 17.0453V17.5265C9.42377 17.2236 9.81659 16.9713 10.3546 16.9713C11.035 16.9713 11.2754 17.4303 11.2754 18.0076V19.9167C11.2754 20.1615 11.4523 20.1615 11.6765 20.1615H11.8212V20.3541C11.6813 20.3541 11.5417 20.3504 11.4013 20.3468C11.2592 20.3431 11.1161 20.3394 10.9711 20.3394C10.6823 20.3394 10.3935 20.3463 10.1049 20.3541V20.1615H10.2495C10.4741 20.1615 10.6338 20.1615 10.6338 19.9167V18.0007C10.6338 17.5783 10.3546 17.3713 9.89701 17.3713C9.64024 17.3713 9.2314 17.5634 8.96605 17.727V19.9167C8.96605 20.1615 9.14322 20.1615 9.36779 20.1615H9.51178V20.3541C9.37269 20.3541 9.23351 20.3505 9.09327 20.3468L9.09319 20.3468H9.09312C8.95072 20.3431 8.8072 20.3394 8.66156 20.3394C8.37359 20.3394 8.08463 20.3463 7.79632 20.3541V20.1615H7.94097C8.16521 20.1615 8.32537 20.1615 8.32537 19.9167V17.9558Z" fill="white"/>
<path fill-rule="evenodd" clip-rule="evenodd" d="M12.4305 18.7408C12.4142 18.489 12.4142 18.3782 12.4305 18.3116H14.6831L14.7556 18.2669C14.763 18.2224 14.763 18.1785 14.763 18.1335C14.7556 17.3488 14.0576 16.9713 13.4075 16.9713C12.8469 16.9713 11.789 17.4009 11.789 18.8516C11.789 19.325 12.0454 20.4653 13.3205 20.4653C13.9774 20.4653 14.4341 20.0803 14.803 19.6289L14.691 19.5253C14.395 19.7986 14.05 20.0207 13.6085 20.0207C12.9678 20.0207 12.4777 19.4437 12.4305 18.7408ZM14.0735 17.889C14.0735 17.9782 14.05 18.0745 13.8501 18.0745H12.4545C12.5506 17.5412 12.8874 17.2087 13.376 17.2087C13.8251 17.2087 14.0735 17.5122 14.0735 17.889Z" fill="white"/>
<path d="M14.9478 20.1615H15.1644C15.388 20.1615 15.5485 20.1615 15.5485 19.9167V17.8375C15.5485 17.6566 15.3634 17.5904 15.2264 17.5415C15.19 17.5285 15.157 17.5167 15.1317 17.5043V17.3936C15.4474 17.2697 15.6862 17.1566 15.8507 17.0787C15.9911 17.0122 16.0773 16.9713 16.1111 16.9713C16.158 16.9713 16.1821 16.9936 16.1821 17.068V17.7341H16.1989C16.3987 17.4456 16.7361 16.9713 17.2248 16.9713C17.4251 16.9713 17.6814 17.0971 17.6814 17.3637C17.6814 17.5634 17.5298 17.7419 17.3054 17.7419C17.1844 17.7419 17.1222 17.6999 17.058 17.6566C16.99 17.6107 16.9198 17.5634 16.7752 17.5634C16.6391 17.5634 16.1902 17.7341 16.1902 18.1785V19.9167C16.1902 20.1615 16.3503 20.1615 16.5749 20.1615H17.0234V20.3541C16.9698 20.3531 16.9179 20.3522 16.8673 20.3513C16.5009 20.3447 16.2051 20.3394 15.9019 20.3394C15.5731 20.3394 15.2363 20.3463 14.9478 20.3541V20.1615Z" fill="white"/>
<path d="M19.0448 20.2284C18.4584 20.2284 18.1384 19.8134 18.0339 19.3249L17.8896 19.3623L17.9782 20.2135C18.258 20.3615 18.6354 20.4653 18.9558 20.4653C19.9102 20.4653 20.3345 19.9466 20.3345 19.4585C20.3345 18.8349 19.7991 18.6228 19.3029 18.4263C18.8744 18.2566 18.4751 18.0984 18.4751 17.6969C18.4751 17.3786 18.7794 17.2087 19.1001 17.2087C19.6138 17.2087 19.894 17.475 19.9741 17.941H20.1584L20.102 17.1867C19.7896 17.0386 19.445 16.9715 19.1889 16.9715C18.307 16.9715 17.946 17.5042 17.946 17.9192C17.946 18.561 18.453 18.7754 18.9208 18.9732C19.3214 19.1425 19.6932 19.2998 19.6932 19.7028C19.6932 19.9617 19.517 20.2284 19.0448 20.2284Z" fill="white"/>
<path d="M33.0105 19.9466C33.0105 20.0803 33.0982 20.0873 33.234 20.0873C33.2814 20.0873 33.3343 20.0856 33.3883 20.0839C33.4445 20.0821 33.502 20.0803 33.5555 20.0803V20.2361C33.2106 20.2654 32.5529 20.4209 32.4003 20.4654L32.3604 20.4428V19.8433C31.8799 20.2058 31.5107 20.4654 30.9407 20.4654C30.5079 20.4654 30.0592 20.2058 30.0592 19.5849V17.6897C30.0592 17.497 30.0274 17.3119 29.5791 17.2755V17.1345C29.7391 17.1304 30.0069 17.1151 30.2318 17.1021C30.4127 17.0918 30.5658 17.083 30.6124 17.083C30.7014 17.083 30.7014 17.1345 30.7014 17.2976V19.2069C30.7014 19.4291 30.7014 20.0649 31.3987 20.0649C31.6708 20.0649 32.0316 19.873 32.3681 19.6143V17.6229C32.3681 17.4885 32.0506 17.4091 31.7765 17.3404C31.7489 17.3335 31.7218 17.3267 31.6954 17.32V17.1869C32.1604 17.1578 32.5124 17.123 32.7252 17.102C32.8424 17.0904 32.9173 17.083 32.9457 17.083C33.0105 17.083 33.0105 17.1345 33.0105 17.2162V19.9466Z" fill="white"/>
<path fill-rule="evenodd" clip-rule="evenodd" d="M35.7999 16.9714C35.359 16.9714 34.9259 17.2532 34.6054 17.5043V14.8036C34.6054 14.7443 34.5892 14.6992 34.5415 14.6992C34.5239 14.6992 34.4857 14.7188 34.4325 14.7462C34.412 14.7568 34.3893 14.7685 34.3647 14.7807C34.1964 14.8702 33.86 15.0031 33.539 15.0992V15.2177C33.5497 15.2206 33.5601 15.2234 33.5703 15.2261C33.852 15.3009 33.9644 15.3308 33.9644 15.7955V18.9774C33.9644 19.4291 33.9239 19.8584 33.8523 20.2949L34.0204 20.376L34.2601 20.2058C34.2914 20.218 34.325 20.2323 34.3615 20.2479C34.5689 20.3365 34.8705 20.4654 35.3744 20.4654C36.5213 20.4654 37.2913 19.4954 37.2913 18.5262C37.2913 17.7197 36.73 16.9714 35.7999 16.9714ZM35.4312 20.2727C34.8942 20.2727 34.6054 19.7986 34.6054 19.5175V17.7197C34.8217 17.5492 35.0697 17.3714 35.3676 17.3714C35.9927 17.3714 36.6494 18.0373 36.6494 18.8364C36.6494 19.4954 36.2888 20.2727 35.4312 20.2727Z" fill="white"/>
<path d="M7.39978 24.7956C7.32046 24.7956 7.21277 24.7922 7.09677 24.7885C6.9614 24.7842 6.81469 24.7796 6.6886 24.7796C6.54388 24.7796 6.38589 24.7845 6.24463 24.7889C6.13043 24.7924 6.02714 24.7956 5.95067 24.7956H5.93201V24.64H6.03389C6.27431 24.6348 6.3709 24.6319 6.37635 24.3195V22.1859H5.68036C5.37509 22.1915 5.36454 22.2363 5.30431 22.4921C5.30078 22.5071 5.29709 22.5228 5.29315 22.5392L5.29001 22.553H5.12192L5.12423 22.5321C5.12945 22.4992 5.13504 22.4662 5.14065 22.4331C5.15421 22.3532 5.16791 22.2724 5.1769 22.1897C5.19507 22.078 5.20332 21.9662 5.20332 21.8508V21.833H5.34186L5.34516 21.8456C5.37439 21.9466 5.45441 21.9479 5.56475 21.9497L5.56659 21.9498H7.83917C7.9607 21.9479 8.0492 21.9464 8.05663 21.8411L8.05812 21.822L8.07793 21.8257L8.20128 21.8437L8.19814 21.8615C8.1808 21.9696 8.1638 22.078 8.15059 22.1859C8.1425 22.2938 8.1425 22.402 8.1425 22.5109V22.5231L8.12978 22.5278L7.97539 22.5799L7.9744 22.5566L7.97432 22.5556C7.96227 22.4042 7.94491 22.1859 7.66975 22.1859H6.97343V24.3112C6.97772 24.6148 7.10817 24.6361 7.31623 24.64H7.41827V24.7956H7.39978Z" fill="white"/>
<path d="M1.34954 24.7956C1.24478 24.7956 1.12769 24.7916 1.00977 24.7876C0.890146 24.7836 0.769666 24.7795 0.660323 24.7795C0.547689 24.7795 0.423061 24.784 0.305301 24.7882C0.19984 24.792 0.0998872 24.7956 0.018989 24.7956H0V24.64H0.0799191C0.238271 24.6365 0.382258 24.6247 0.383579 24.428V22.3182C0.382258 22.1211 0.238271 22.1083 0.0799191 22.1057H0V21.9498H0.018989C0.0999035 21.9498 0.200987 21.9533 0.30762 21.957C0.426642 21.9611 0.552589 21.9655 0.665112 21.9655C0.774973 21.9655 0.896179 21.9615 1.01585 21.9575C1.13252 21.9536 1.24773 21.9498 1.34954 21.9498H1.36903V22.1057H1.28878C1.13026 22.1083 0.985448 22.1211 0.984623 22.3182V24.428C0.985448 24.6247 1.13026 24.6365 1.28878 24.64H1.36903V24.7956H1.34954Z" fill="white"/>
<path d="M4.59867 24.8558L4.41901 24.8502L2.20522 22.5723V24.1865C2.2105 24.5366 2.26813 24.6362 2.59656 24.64H2.69002V24.7956H2.6707C2.576 24.7956 2.48155 24.7916 2.38743 24.7875H2.38736C2.29393 24.7835 2.20082 24.7795 2.10813 24.7795C2.01078 24.7795 1.91216 24.7835 1.81325 24.7875H1.81302C1.71354 24.7916 1.61375 24.7956 1.51468 24.7956H1.49553V24.64H1.57611C1.86441 24.6385 1.9468 24.4674 1.94994 24.1467V22.4507C1.94912 22.2362 1.75857 22.1057 1.57198 22.1057H1.49553V21.9498H1.51468C1.59846 21.9498 1.68325 21.9538 1.76763 21.9577C1.85121 21.9616 1.9344 21.9655 2.01583 21.9655C2.06901 21.9655 2.12151 21.9629 2.17505 21.9602C2.25248 21.9563 2.33207 21.9523 2.41905 21.956L4.33612 23.9482V22.467C4.33397 22.1472 4.10247 22.1083 3.97549 22.1057H3.86007V21.9498H3.87939C3.98272 21.9498 4.08472 21.9537 4.18643 21.9577C4.28757 21.9616 4.38842 21.9655 4.49001 21.9655C4.57842 21.9655 4.66715 21.9616 4.75623 21.9577C4.84602 21.9538 4.93615 21.9498 5.02666 21.9498H5.04582V22.1057H4.96177C4.78162 22.11 4.59685 22.1246 4.59156 22.5996V24.4319C4.59156 24.5729 4.59635 24.7135 4.61732 24.8357L4.62129 24.8558H4.59867Z" fill="white"/>
<path d="M10.1601 24.7883C9.93607 24.7838 9.69153 24.7789 9.4795 24.7789C9.26072 24.7789 9.00304 24.7841 8.7746 24.7887C8.59269 24.7923 8.42931 24.7956 8.31886 24.7956H8.30053V24.64H8.38029C8.53814 24.6376 8.6818 24.6247 8.68378 24.428V22.3182C8.6818 22.1214 8.53814 22.1083 8.38029 22.1057H8.30053V21.9498H8.31886C8.44161 21.9498 8.60407 21.9531 8.77935 21.9567C8.98464 21.9609 9.2075 21.9655 9.4047 21.9655C9.59772 21.9655 9.81462 21.9611 10.0201 21.957C10.205 21.9533 10.3807 21.9498 10.5214 21.9498H10.5407L10.5401 21.9684C10.5373 22.0286 10.5355 22.1002 10.5355 22.176C10.5355 22.3152 10.5401 22.4678 10.5487 22.5824L10.5495 22.5967L10.5348 22.6009L10.3814 22.6379L10.3807 22.6172C10.355 22.3559 10.317 22.1658 9.86787 22.1618H9.27987L9.27954 23.1818H9.78019C10.0317 23.1793 10.0766 23.0608 10.1063 22.8435L10.1073 22.8274H10.2751L10.2747 22.8458C10.2663 23.0031 10.2612 23.1597 10.2612 23.3165C10.2612 23.4688 10.2663 23.6217 10.2747 23.7748L10.2751 23.7894L10.2592 23.7928L10.1073 23.8206L10.1063 23.8017C10.1049 23.7902 10.1035 23.779 10.1022 23.7679C10.0753 23.5435 10.0606 23.421 9.78465 23.4182H9.27987V24.3391C9.28052 24.5815 9.50455 24.5825 9.78495 24.5839L9.7934 24.5839C10.3187 24.581 10.529 24.5572 10.6605 24.1055L10.6649 24.0892L10.6832 24.092L10.8231 24.1255L10.8191 24.1421C10.7625 24.3552 10.7105 24.5682 10.671 24.7813L10.6677 24.7956H10.6527C10.5245 24.7956 10.3496 24.7921 10.1601 24.7883Z" fill="white"/>
<path fill-rule="evenodd" clip-rule="evenodd" d="M13.9807 24.7956C13.9072 24.7956 13.8356 24.7916 13.7644 24.7875C13.6938 24.7835 13.6236 24.7795 13.5522 24.7795C13.4987 24.7795 13.444 24.7821 13.3879 24.7848C13.3048 24.7888 13.2186 24.7929 13.1279 24.7889C12.7932 24.3834 12.5064 23.9511 12.2247 23.4914H11.9669V24.3348C11.9716 24.6331 12.099 24.6357 12.2951 24.6398L12.3049 24.64H12.4028V24.7956H12.3835C12.2586 24.7956 12.1326 24.7916 12.0069 24.7875H12.0067C11.8816 24.7835 11.7568 24.7795 11.6335 24.7795C11.5306 24.7795 11.4286 24.7834 11.3253 24.7874C11.2193 24.7915 11.112 24.7956 11.0011 24.7956H10.9821V24.64H11.0799C11.2367 24.6389 11.3693 24.5758 11.37 24.4405V22.3938C11.3667 22.1139 11.2211 22.1098 11.0878 22.106L11.0799 22.1057H10.9821V21.9498H11.0011C11.0606 21.9498 11.1429 21.9526 11.2381 21.9558C11.3687 21.9602 11.5237 21.9655 11.6776 21.9655C11.8115 21.9655 11.9319 21.9613 12.0488 21.9573C12.1593 21.9535 12.2668 21.9498 12.3797 21.9498C12.9297 21.9509 13.4358 22.0906 13.4371 22.6757C13.4371 23.0391 13.1769 23.2662 12.8406 23.3929L13.573 24.406C13.6951 24.5731 13.771 24.6148 13.9832 24.64L13.9991 24.6423V24.7956H13.9807ZM12.1614 23.311C12.5932 23.3071 12.8108 23.1688 12.8151 22.701C12.8125 22.3491 12.5759 22.1309 12.1959 22.1293C12.1051 22.1293 12.0512 22.1353 12.0058 22.1404C11.9924 22.1419 11.9796 22.1433 11.9669 22.1444V23.311H12.1614Z" fill="white"/>
<path d="M17.1948 24.8558L17.0157 24.8502L14.8015 22.5726V24.1863C14.8067 24.5371 14.8641 24.6362 15.1931 24.64H15.2855V24.7956H15.2665C15.172 24.7956 15.0779 24.7914 14.9839 24.7872C14.8904 24.783 14.7971 24.7789 14.7038 24.7789C14.6067 24.7789 14.5078 24.783 14.4088 24.7872C14.3092 24.7914 14.2095 24.7956 14.111 24.7956H14.0915V24.64H14.1718C14.4599 24.6389 14.5425 24.4674 14.5453 24.1458V22.4501C14.5448 22.2355 14.3546 22.1057 14.168 22.1057H14.0915V21.9498H14.111C14.1946 21.9498 14.2792 21.9537 14.3635 21.9577C14.4473 21.9616 14.5309 21.9655 14.613 21.9655C14.6666 21.9655 14.72 21.9627 14.7746 21.9599C14.8504 21.956 14.9287 21.952 15.0137 21.955L16.9315 23.9482V22.467C16.9303 22.1472 16.698 22.1076 16.5712 22.1057H16.4561V21.9498H16.4751C16.5784 21.9498 16.6804 21.9537 16.7822 21.9577C16.8835 21.9616 16.9845 21.9655 17.0862 21.9655C17.1747 21.9655 17.2636 21.9616 17.3526 21.9577C17.4423 21.9537 17.5321 21.9498 17.6223 21.9498H17.6416V22.1057H17.5574C17.3775 22.1097 17.192 22.1246 17.1877 22.5996V24.4319C17.1877 24.5729 17.1915 24.7126 17.2138 24.836L17.216 24.8558H17.1948Z" fill="white"/>
<path fill-rule="evenodd" clip-rule="evenodd" d="M20.5823 24.793C20.4081 24.7859 20.2324 24.7788 20.048 24.7788C19.8632 24.7788 19.6757 24.7855 19.4846 24.7924C19.4545 24.7935 19.4242 24.7945 19.3939 24.7956L19.3738 24.7965V24.6392H19.441C19.542 24.6392 19.692 24.6183 19.6923 24.5407C19.6933 24.4948 19.6541 24.3845 19.6061 24.2564L19.44 23.8008H18.4778L18.3421 24.2078C18.3269 24.2552 18.3106 24.2989 18.2958 24.3385C18.2679 24.4134 18.2454 24.4738 18.246 24.5166C18.2475 24.615 18.4103 24.6392 18.5551 24.6392H18.6221V24.7965L18.6023 24.7956C18.584 24.7948 18.5656 24.794 18.5472 24.7931L18.5464 24.7931C18.39 24.786 18.2313 24.7788 18.0754 24.7788C17.9375 24.7788 17.7979 24.7859 17.6593 24.7929C17.6415 24.7938 17.6236 24.7947 17.6058 24.7956L17.5855 24.7965V24.6392H17.6307C17.7929 24.6389 17.9283 24.5534 17.9914 24.3898L18.69 22.5414C18.6964 22.5243 18.7032 22.5066 18.7101 22.4883L18.7103 22.4879C18.764 22.3467 18.8299 22.1734 18.8632 22.031C19.0001 21.9882 19.1756 21.9069 19.2593 21.8583C19.2612 21.8577 19.2631 21.8571 19.265 21.8564C19.2754 21.8529 19.2863 21.8492 19.3011 21.8492C19.3118 21.8486 19.3353 21.8511 19.3495 21.8722C19.3619 21.9053 19.3757 21.9414 19.389 21.9739L20.1921 24.0801C20.1976 24.0951 20.2031 24.1103 20.2086 24.1255L20.2096 24.1281C20.2553 24.2543 20.3021 24.3833 20.3528 24.4892C20.4033 24.5965 20.4834 24.6389 20.6236 24.6392H20.6677V24.7965L20.6483 24.7956L20.5823 24.793ZM18.5724 23.5405H19.3361L18.9565 22.4614L18.5724 23.5405Z" fill="white"/>
<path d="M22.5601 24.7956C22.4811 24.7956 22.3736 24.7922 22.2576 24.7885C22.122 24.7842 21.9749 24.7796 21.8485 24.7796C21.7045 24.7796 21.5468 24.7845 21.4057 24.7889C21.2914 24.7924 21.188 24.7956 21.1115 24.7956H21.0922V24.64H21.1944C21.435 24.6348 21.5314 24.6319 21.5372 24.3195L21.5369 22.1859H20.8414C20.5359 22.1908 20.5252 22.2362 20.4651 22.4918L20.465 22.4921C20.4615 22.5071 20.4578 22.5228 20.4538 22.5392L20.4507 22.553H20.2823L20.2849 22.533C20.2896 22.5041 20.2945 22.4753 20.2993 22.4464C20.3136 22.3619 20.3279 22.277 20.3374 22.1906C20.3553 22.078 20.3633 21.9662 20.3633 21.8508V21.833H20.5019L20.5055 21.8456C20.5359 21.9466 20.6146 21.9479 20.7253 21.9497L20.7271 21.9498H23.0007C23.1214 21.9479 23.2094 21.9464 23.2171 21.8414L23.2178 21.822L23.2381 21.8257L23.362 21.8437L23.359 21.8615C23.341 21.9696 23.3245 22.078 23.3113 22.1859C23.3024 22.2938 23.3024 22.4022 23.3024 22.5109V22.5231L23.2896 22.5278L23.1352 22.5799L23.1346 22.5566C23.1232 22.4051 23.1059 22.1859 22.8301 22.1859H22.1336V24.3112C22.1381 24.6148 22.2687 24.6361 22.4766 24.64H22.5783V24.7956H22.5601Z" fill="white"/>
<path d="M24.8322 24.7956C24.7276 24.7956 24.6107 24.7915 24.4929 24.7873C24.3732 24.7831 24.2525 24.7789 24.1428 24.7789C24.0301 24.7789 23.905 24.7835 23.787 24.788C23.6816 24.7919 23.5817 24.7956 23.5013 24.7956H23.4827V24.64H23.5626C23.7198 24.6376 23.8648 24.6247 23.8658 24.428V22.3182C23.8648 22.1214 23.7198 22.1083 23.5626 22.1057H23.4827V21.9498H23.5013C23.5819 21.9498 23.683 21.9533 23.7896 21.957C23.9085 21.9611 24.0344 21.9655 24.1463 21.9655C24.2564 21.9655 24.3779 21.9615 24.4978 21.9575C24.6147 21.9536 24.7302 21.9498 24.8322 21.9498H24.8504V22.1057H24.7711C24.6115 22.1083 24.468 22.1214 24.4665 22.3182V24.428C24.468 24.6247 24.6115 24.6376 24.7711 24.64H24.8504V24.7956H24.8322Z" fill="white"/>
<path fill-rule="evenodd" clip-rule="evenodd" d="M24.943 23.3929C24.9448 22.546 25.655 21.8908 26.5715 21.8894C27.508 21.8903 28.2598 22.4277 28.2615 23.2962C28.2605 24.2322 27.532 24.8543 26.5942 24.8558C25.6611 24.8543 24.9448 24.2685 24.943 23.3929ZM26.6377 24.6439C27.4671 24.6433 27.6112 23.9725 27.6125 23.3853C27.6125 22.8019 27.2722 22.1028 26.5632 22.1018C25.8149 22.1025 25.5938 22.7153 25.5918 23.2517C25.5921 23.9691 25.9468 24.6429 26.6377 24.6439Z" fill="white"/>
<path fill-rule="evenodd" clip-rule="evenodd" d="M28.8528 21.9655C28.8972 21.9655 28.9411 21.9636 28.9856 21.9615L29.2589 21.9596L31.1722 23.9482V22.467C31.1707 22.1472 30.9384 22.1083 30.8111 22.1057H30.6962V21.95L30.7222 21.9498C30.8228 21.9499 30.9226 21.9538 31.0221 21.9577C31.1233 21.9616 31.2242 21.9655 31.3256 21.9655C31.4145 21.9655 31.5033 21.9616 31.5924 21.9577C31.6822 21.9538 31.7724 21.9498 31.8633 21.9498H31.8818V22.1057H31.7975C31.6177 22.11 31.4321 22.1252 31.4285 22.5996V24.4319C31.4285 24.5729 31.432 24.7135 31.4531 24.836L31.4569 24.8558H31.4359L31.2554 24.8502L29.0417 22.5726V24.1865C29.0468 24.5371 29.1044 24.6357 29.432 24.6392H29.526V24.7956H29.5075C29.4127 24.7956 29.3184 24.7916 29.2244 24.7875C29.1309 24.7835 29.0377 24.7795 28.9447 24.7795C28.8473 24.7795 28.7485 24.7835 28.6494 24.7875C28.5498 24.7916 28.4498 24.7956 28.3506 24.7956H28.3328V24.6392H28.4122C28.6997 24.6385 28.7826 24.4674 28.786 24.1467V22.4501C28.7859 22.2355 28.5952 22.1057 28.4078 22.1057H28.3328V21.9498H28.3512C28.435 21.9498 28.5194 21.9538 28.6036 21.9577C28.6873 21.9616 28.7707 21.9655 28.8528 21.9655ZM30.8436 22.0717C30.8906 22.0749 30.9471 22.085 31.0014 22.1088C30.9477 22.0843 30.8909 22.0745 30.8436 22.0717ZM31.5758 22.1163C31.6327 22.0823 31.6982 22.0732 31.7627 22.0712C31.6992 22.0738 31.6338 22.0839 31.5758 22.1163ZM28.3694 24.7611V24.7608C28.4221 24.7606 28.475 24.7593 28.5281 24.7575C28.475 24.7593 28.422 24.7607 28.3694 24.7611ZM29.4883 24.7611C29.4197 24.7606 29.3511 24.7582 29.2824 24.7554C29.351 24.7581 29.4196 24.7604 29.4883 24.7608V24.7611Z" fill="white"/>
<path d="M30.6962 21.95V21.9498H30.7162L30.6962 21.95Z" fill="white"/>
<path d="M29.2589 21.9596L28.9856 21.9615C29.0058 21.9603 29.0261 21.9591 29.0463 21.9578C29.1106 21.9538 29.175 21.9498 29.2409 21.9498L29.2465 21.9557C29.2495 21.9558 29.2525 21.9559 29.2555 21.956L29.2589 21.9596Z" fill="white"/>
<path fill-rule="evenodd" clip-rule="evenodd" d="M34.8883 24.7956C34.856 24.7944 34.8237 24.7932 34.7913 24.7919C34.6269 24.7857 34.4616 24.7794 34.2878 24.7794C34.1136 24.7794 33.9355 24.7854 33.7548 24.7916C33.7147 24.7929 33.6744 24.7943 33.634 24.7956L33.6147 24.7965V24.6399H33.6811C33.7825 24.6399 33.9327 24.6183 33.9329 24.5407C33.9341 24.4948 33.8946 24.3849 33.8456 24.2564L33.6801 23.8008H32.7171L32.5824 24.2078C32.5673 24.2553 32.5512 24.2989 32.5367 24.3384C32.5091 24.4135 32.4871 24.4735 32.4874 24.5163C32.4874 24.6149 32.6511 24.6399 32.7952 24.6399H32.8619V24.7965L32.8423 24.7956C32.8149 24.7944 32.7874 24.7933 32.7598 24.7921C32.612 24.7858 32.4621 24.7794 32.3157 24.7794C32.1863 24.7794 32.0567 24.7856 31.9266 24.7918C31.8996 24.7931 31.8725 24.7943 31.8454 24.7956L31.8265 24.7965V24.6399H31.8702C32.0329 24.6392 32.1689 24.5532 32.2328 24.3898L32.9305 22.5413C32.9371 22.5236 32.9441 22.5052 32.9513 22.4862C33.0046 22.3452 33.0697 22.1729 33.1035 22.0316C33.2406 21.9877 33.4158 21.9069 33.5006 21.8583L33.5032 21.8574C33.5137 21.8536 33.5254 21.8494 33.5419 21.8494C33.5531 21.8485 33.5761 21.8511 33.5895 21.8731C33.5951 21.8867 33.6008 21.9013 33.6065 21.916L33.6065 21.9161L33.6065 21.9162L33.6066 21.9163C33.6141 21.9357 33.6217 21.9554 33.6297 21.9738L34.4319 24.08C34.4412 24.105 34.4505 24.1302 34.4598 24.1555L34.46 24.1561L34.4604 24.1572L34.4604 24.1573C34.5034 24.274 34.5467 24.3916 34.5931 24.4899C34.6444 24.5965 34.7234 24.6389 34.8629 24.6399H34.908V24.7965L34.8883 24.7956ZM32.8131 23.5404H33.5763L33.1968 22.4619L32.8131 23.5404Z" fill="white"/>
<path d="M37.3452 24.7956C37.1525 24.7956 36.96 24.7916 36.7678 24.7875C36.5761 24.7835 36.3847 24.7795 36.1936 24.7795C36.0019 24.7795 35.8101 24.7835 35.6182 24.7875C35.426 24.7916 35.2337 24.7956 35.0412 24.7956H35.0229V24.64H35.1025C35.2602 24.6365 35.41 24.6263 35.4118 24.3879V22.3175C35.41 22.1214 35.2608 22.1083 35.1025 22.1057H35.0229V21.9498H35.0412C35.1577 21.9498 35.2728 21.9537 35.3877 21.9577C35.5019 21.9616 35.6159 21.9655 35.7306 21.9655C35.8414 21.9655 35.9509 21.9616 36.0608 21.9577C36.1712 21.9537 36.282 21.9498 36.3946 21.9498H36.4121V22.1057H36.2849C36.2776 22.1059 36.2704 22.1061 36.2633 22.1062C36.1068 22.1095 36.0105 22.1115 36.0069 22.3059V24.3834C36.008 24.534 36.1149 24.5743 36.2512 24.5923C36.328 24.5972 36.4093 24.5997 36.4932 24.5997C36.5998 24.5997 36.7106 24.5952 36.8234 24.5842C37.0011 24.5647 37.154 24.4699 37.2294 24.3738C37.2968 24.2877 37.3348 24.1773 37.3612 24.0897L37.3648 24.0764H37.5293L37.5255 24.0976C37.4965 24.2329 37.4637 24.3663 37.431 24.5L37.4309 24.5001C37.4079 24.5938 37.3849 24.6875 37.3632 24.7821L37.3597 24.7956H37.3452Z" fill="white"/>
<path fill-rule="evenodd" clip-rule="evenodd" d="M37.2248 22.4812V22.5017H37.4467V22.4812C37.4417 22.4805 37.437 22.4799 37.4327 22.4793C37.3884 22.4737 37.3797 22.4726 37.3797 22.4473V22.3068H37.4305C37.4561 22.3407 37.4774 22.3719 37.4958 22.399C37.5382 22.4613 37.5657 22.5017 37.5957 22.5017H37.685V22.4883C37.6592 22.4737 37.6191 22.4322 37.5839 22.3883L37.5083 22.2911C37.572 22.2729 37.617 22.2261 37.617 22.1632C37.617 22.086 37.5425 22.0504 37.4617 22.0504H37.2266V22.072C37.2867 22.0696 37.2915 22.0848 37.2915 22.129V22.4434C37.2915 22.4725 37.2825 22.4737 37.2373 22.4795C37.2334 22.48 37.2292 22.4806 37.2248 22.4812ZM37.4338 22.2781H37.3797V22.0786H37.4309C37.4783 22.0786 37.5205 22.1025 37.5205 22.1699C37.5205 22.2368 37.4931 22.2781 37.4338 22.2781Z" fill="white"/>
<path fill-rule="evenodd" clip-rule="evenodd" d="M37.9127 22.2781C37.9127 22.0397 37.7164 21.8531 37.4532 21.8531C37.1906 21.8531 36.994 22.0397 36.994 22.2781C36.994 22.5164 37.1906 22.701 37.4532 22.701C37.7164 22.701 37.9127 22.5164 37.9127 22.2781ZM37.8166 22.2781C37.8166 22.4605 37.6592 22.6222 37.4532 22.6222C37.2464 22.6222 37.0892 22.4605 37.0892 22.2781C37.0892 22.0955 37.2464 21.9326 37.4532 21.9326C37.661 21.9326 37.8166 22.0955 37.8166 22.2781Z" fill="white"/>
<path fill-rule="evenodd" clip-rule="evenodd" d="M10.207 7.75003C10.207 3.98317 13.5148 0.929565 17.5949 0.929565C21.6753 0.929565 24.983 3.98317 24.983 7.75003C24.983 11.5169 21.6753 14.5706 17.5949 14.5706C13.5148 14.5706 10.207 11.5169 10.207 7.75003" fill="#FFFFFE"/>
<path fill-rule="evenodd" clip-rule="evenodd" d="M22.0631 7.61571C22.0602 5.8691 20.8776 4.37949 19.2112 3.78956V11.4416C20.8776 10.8509 22.0602 9.36263 22.0631 7.61571ZM16.0322 11.4401V3.79037C14.3673 4.38213 13.1865 5.8696 13.182 7.61576C13.1865 9.36146 14.3673 10.8488 16.0322 11.4401ZM17.6225 1.14799C13.7534 1.14936 10.6187 4.04383 10.6181 7.61571C10.6187 11.1871 13.7534 14.0811 17.6225 14.0818C21.4917 14.0811 24.627 11.1871 24.628 7.61571C24.627 4.04383 21.4917 1.14936 17.6225 1.14799ZM17.6054 14.6921C13.3715 14.7107 9.88672 11.5442 9.88672 7.68951C9.88672 3.47678 13.3715 0.562959 17.6054 0.563721H19.5895C23.7733 0.562959 27.5918 3.47541 27.5918 7.68951C27.5918 11.5428 23.7733 14.6921 19.5895 14.6921H17.6054Z" fill="white"/>
</svg>
