<svg width="76" height="14" viewBox="0 0 76 14" fill="none" xmlns="http://www.w3.org/2000/svg">
<path d="M70.8037 5.69435L72.4093 9.27415H72.4283L73.996 5.69435H75.1039L71.7239 12.88H70.6724L71.9306 10.3663L69.7052 5.69435H70.8037ZM67.1608 5.52966C67.9119 5.52966 68.5032 5.71168 68.9352 6.0844C69.3673 6.45712 69.5831 6.95985 69.5831 7.60994V10.687H68.6159V9.99357H68.5692C68.1466 10.5657 67.5925 10.8517 66.8976 10.8517C66.3063 10.8517 65.8086 10.687 65.405 10.3663C65.0011 10.0369 64.8038 9.62953 64.8038 9.14413C64.8038 8.63274 65.0105 8.21667 65.4426 7.91329C65.8651 7.60994 66.4284 7.4539 67.1324 7.4539C67.7332 7.4539 68.2309 7.55794 68.6254 7.75729V7.54057C68.6254 7.2112 68.4846 6.94252 68.2028 6.70847C67.9213 6.4831 67.5925 6.37042 67.217 6.37042C66.6537 6.37042 66.2031 6.58713 65.8742 7.02919L64.9825 6.50912C65.4706 5.85903 66.2031 5.52966 67.1608 5.52966ZM62.0341 3.38873C62.7195 3.38873 63.3018 3.59676 63.7805 4.02149C64.2686 4.44621 64.5034 4.95759 64.5034 5.55568C64.5034 6.1711 64.2592 6.69117 63.7805 7.09855C63.3109 7.51462 62.729 7.72265 62.0341 7.72265H60.3629V10.6783H59.3486V3.38873H62.0341ZM67.2921 8.19066C66.879 8.19066 66.541 8.28601 66.2592 8.46803C65.9869 8.65873 65.8462 8.88409 65.8462 9.15281C65.8462 9.39551 65.9588 9.60351 66.1841 9.75955C66.4094 9.92423 66.6723 10.0022 66.9727 10.0022C67.3953 10.0022 67.7803 9.8549 68.1182 9.56885C68.4562 9.27414 68.6159 8.93609 68.6159 8.53739C68.2969 8.30334 67.8554 8.19066 67.2921 8.19066ZM62.0622 4.29886H60.3629V6.83852H62.0622C62.4661 6.83852 62.8041 6.71718 63.067 6.4658C63.3393 6.21445 63.4706 5.91975 63.4706 5.57301C63.4706 5.23499 63.3393 4.94026 63.067 4.68891C62.8041 4.42887 62.4661 4.29886 62.0622 4.29886Z" fill="white"/>
<path d="M45.021 5.53834C45.7064 5.53834 46.251 5.81571 46.5329 6.12775H46.5795V5.69438H47.7815V10.4617C47.7815 12.4206 46.5329 13.2267 45.0494 13.2267C43.6596 13.2267 42.824 12.3599 42.5046 11.6578L43.6035 11.2331C43.8004 11.6665 44.2794 12.1779 45.0494 12.1779C45.9977 12.1779 46.5795 11.6318 46.5795 10.6177V10.2363H46.5329C46.251 10.557 45.7064 10.843 45.021 10.843C43.5845 10.843 42.2702 9.69021 42.2702 8.19937C42.2702 6.69985 43.5845 5.53834 45.021 5.53834ZM53.2838 5.54703C54.7767 5.54703 55.4997 6.6392 55.7436 7.23725L55.8752 7.54063L52.0351 9.00549C52.326 9.53424 52.7861 9.81161 53.4245 9.81161C54.0632 9.79428 54.5139 9.50823 54.8424 9.06617L55.8187 9.67291C55.4997 10.1063 54.7392 10.8517 53.4245 10.8517C51.7908 10.8517 50.5797 9.69024 50.5797 8.1994C50.5797 6.62183 51.8098 5.54703 53.2838 5.54703ZM25.173 2.6087C26.5344 2.6087 27.5015 3.10277 28.2245 3.74418L27.3607 4.54162C26.8349 4.09092 26.1307 3.73553 25.1636 3.73553C23.3703 3.73553 21.9619 5.07037 21.9619 6.72593C21.9619 8.38145 23.3609 9.71632 25.1636 9.71632C26.3279 9.71632 26.9945 9.28292 27.417 8.89287C27.7644 8.57215 27.9898 8.11277 28.0837 7.48001H25.1355V6.35321H29.2667C29.3136 6.55256 29.3324 6.79526 29.3324 7.0553C29.3324 7.89608 29.0789 8.94487 28.2808 9.69031C27.4921 10.4444 26.4969 10.8431 25.173 10.8431C22.7131 10.8431 20.6475 8.99687 20.6475 6.72593C20.6475 4.45495 22.7131 2.6087 25.173 2.6087ZM32.6378 5.53834C34.2246 5.53834 35.5203 6.6565 35.5203 8.19069C35.5203 9.71623 34.2246 10.843 32.6378 10.843C31.051 10.843 29.7553 9.71623 29.7553 8.19069C29.7553 6.6565 31.051 5.53834 32.6378 5.53834ZM38.9094 5.53834C40.4961 5.53834 41.7918 6.6565 41.7918 8.19069C41.7918 9.71623 40.4961 10.843 38.9094 10.843C37.3224 10.843 36.0267 9.71623 36.0267 8.19069C36.0267 6.6565 37.3224 5.53834 38.9094 5.53834ZM49.9508 2.8861V10.6785H48.6926V2.8861H49.9508ZM32.6472 6.58716C31.7834 6.58716 31.0322 7.23725 31.0322 8.19069C31.0322 9.13548 31.7834 9.79425 32.6472 9.79425C33.511 9.79425 34.2621 9.13548 34.2621 8.19069C34.2621 7.23725 33.511 6.58716 32.6472 6.58716ZM38.9094 6.58716C38.0454 6.58716 37.2944 7.23725 37.2944 8.19069C37.2944 9.13548 38.0454 9.79425 38.9094 9.79425C39.7731 9.79425 40.5242 9.13548 40.5242 8.19069C40.5242 7.23725 39.7731 6.58716 38.9094 6.58716ZM45.1431 6.57848C44.2699 6.57848 43.547 7.26324 43.547 8.19937C43.547 9.12683 44.2794 9.79425 45.1431 9.79425C45.9977 9.79425 46.6736 9.12683 46.6736 8.19937C46.6736 7.26324 45.9977 6.57848 45.1431 6.57848ZM53.3213 6.56118C52.6829 6.56118 51.7908 7.0899 51.8284 8.1127L54.3917 7.12457C54.251 6.7952 53.8284 6.56118 53.3213 6.56118Z" fill="white"/>
<path d="M13.9887 3.01169C12.4695 2.20212 10.527 2.68318 9.64905 4.08564L7.43604 7.62468C6.7957 8.64665 7.62005 9.00375 8.53926 9.51254L10.6687 10.6472C11.3898 11.0311 12.3109 10.8032 12.7268 10.1384L15.0018 6.50135C15.7661 5.27919 15.3126 3.71727 13.9887 3.01169Z" fill="white"/>
<path d="M11.4849 4.47654L9.35542 3.34194C8.1799 2.73953 7.51422 2.69965 7.03159 3.40781L3.89095 8.42909C3.01399 9.83067 3.53603 11.6232 5.05425 12.431C6.37811 13.1366 8.07005 12.7179 8.83432 11.4958L12.0351 6.37739C12.4529 5.71172 12.206 4.86053 11.4849 4.47654Z" fill="white"/>
<path d="M11.8944 1.89531L10.3987 1.09787C8.74438 0.216355 6.62901 0.739023 5.67414 2.26629L2.8264 6.81948C2.40577 7.49124 2.65552 8.35108 3.38319 8.73854L5.05822 9.63133C5.88538 10.0725 6.94259 9.81075 7.42051 9.04711L10.6738 3.84558C11.348 2.76816 12.8399 2.39891 14.007 3.02126L11.8944 1.89531Z" fill="white"/>
<path d="M6.07866 3.56902L4.46186 2.70917C3.74076 2.32605 2.81969 2.55315 2.40376 3.2171L0.463961 6.31152C-0.490917 7.83444 0.075249 9.78298 1.72962 10.6619L2.96053 11.3163L4.4534 12.1103L5.10126 12.4544C3.95108 11.7436 3.58585 10.3195 4.28908 9.19789L4.7914 8.39699L6.63074 5.46293C7.04575 4.80073 6.79882 3.95213 6.07866 3.56902Z" fill="white"/>
</svg>
