<svg width="112" height="31" viewBox="0 0 112 31" fill="none" xmlns="http://www.w3.org/2000/svg">
<path d="M107.852 31H4.14815C1.8677 31 0 29.2553 0 27.125V3.875C0 1.74472 1.8677 -1.43051e-06 4.14815 -1.43051e-06H107.852C110.132 -1.43051e-06 112 1.74472 112 3.875V27.125C112 29.2553 110.132 31 107.852 31Z" fill="black"/>
<path d="M107.852 0.620966C109.772 0.620966 111.335 2.08087 111.335 3.875V27.125C111.335 28.9191 109.772 30.379 107.852 30.379H4.14815C2.22756 30.379 0.66474 28.9191 0.66474 27.125V3.875C0.66474 2.08087 2.22756 0.620966 4.14815 0.620966H107.852ZM107.852 -1.43051e-06H4.14815C1.8677 -1.43051e-06 0 1.74472 0 3.875V27.125C0 29.2553 1.8677 31 4.14815 31H107.852C110.132 31 112 29.2553 112 27.125V3.875C112 1.74472 110.132 -1.43051e-06 107.852 -1.43051e-06Z" fill="#A6A6A6"/>
<path d="M39.3383 7.9389C39.3383 8.58603 39.1309 9.10431 38.7223 9.49084C38.2526 9.94906 37.6407 10.1796 36.8909 10.1796C36.1743 10.1796 35.5625 9.94519 35.0606 9.48309C34.5576 9.01422 34.3066 8.43878 34.3066 7.75C34.3066 7.06122 34.5576 6.48578 35.0606 6.02078C35.5625 5.55481 36.1743 5.32037 36.8909 5.32037C37.2477 5.32037 37.5878 5.38915 37.9124 5.51703C38.236 5.64587 38.4994 5.82025 38.6902 6.03531L38.2567 6.44412C37.9238 6.07697 37.4706 5.89581 36.8909 5.89581C36.3683 5.89581 35.9151 6.06631 35.5303 6.41022C35.1498 6.75509 34.9589 7.20169 34.9589 7.75C34.9589 8.29831 35.1498 8.74878 35.5303 9.09365C35.9151 9.43369 36.3683 9.60806 36.8909 9.60806C37.4458 9.60806 37.9124 9.43369 38.2806 9.08978C38.5232 8.86212 38.6612 8.54825 38.6975 8.14719H36.8909V7.58725H39.301C39.33 7.70834 39.3383 7.82556 39.3383 7.9389V7.9389Z" fill="white" stroke="white" stroke-width="0.08" stroke-miterlimit="10"/>
<path d="M43.1635 5.99747H40.8997V7.46997H42.9406V8.02991H40.8997V9.50241H43.1635V10.073H40.2588V5.42688H43.1635V5.99747Z" fill="white" stroke="white" stroke-width="0.08" stroke-miterlimit="10"/>
<path d="M45.8615 10.073H45.2206V5.99747H43.832V5.42688H47.2511V5.99747H45.8615V10.073V10.073Z" fill="white" stroke="white" stroke-width="0.08" stroke-miterlimit="10"/>
<path d="M49.7246 10.073V5.42688H50.3645V10.073H49.7246Z" fill="white" stroke="white" stroke-width="0.08" stroke-miterlimit="10"/>
<path d="M53.2004 10.073H52.5647V5.99747H51.1709V5.42688H54.5941V5.99747H53.2004V10.073Z" fill="white" stroke="white" stroke-width="0.08" stroke-miterlimit="10"/>
<path d="M61.0696 9.47534C60.5791 9.94519 59.9714 10.1796 59.2465 10.1796C58.5174 10.1796 57.9097 9.94519 57.4192 9.47534C56.9297 9.00647 56.686 8.43103 56.686 7.75C56.686 7.06897 56.9297 6.49353 57.4192 6.02465C57.9097 5.55481 58.5174 5.32037 59.2465 5.32037C59.9672 5.32037 60.5749 5.55481 61.0655 6.02853C61.5591 6.50128 61.8028 7.07284 61.8028 7.75C61.8028 8.43103 61.5591 9.00647 61.0696 9.47534ZM57.8931 9.0859C58.2623 9.43369 58.7114 9.60806 59.2465 9.60806C59.7774 9.60806 60.2306 9.43369 60.5957 9.0859C60.9638 8.73812 61.1505 8.29153 61.1505 7.75C61.1505 7.20847 60.9638 6.76187 60.5957 6.41409C60.2306 6.06631 59.7774 5.89194 59.2465 5.89194C58.7114 5.89194 58.2623 6.06631 57.8931 6.41409C57.525 6.76187 57.3383 7.20847 57.3383 7.75C57.3383 8.29153 57.525 8.73812 57.8931 9.0859V9.0859Z" fill="white" stroke="white" stroke-width="0.08" stroke-miterlimit="10"/>
<path d="M62.6997 10.073V5.42688H63.4775L65.8959 9.04032H65.9239L65.8959 8.14713V5.42688H66.5357V10.073H65.8679L63.3354 6.28132H63.3074L63.3354 7.17838V10.073H62.6997V10.073Z" fill="white" stroke="white" stroke-width="0.08" stroke-miterlimit="10"/>
<path d="M56.5257 16.8583C54.5771 16.8583 52.9852 18.2437 52.9852 20.155C52.9852 22.0508 54.5771 23.4507 56.5257 23.4507C58.4784 23.4507 60.0703 22.0508 60.0703 20.155C60.0703 18.2437 58.4784 16.8583 56.5257 16.8583ZM56.5257 22.1526C55.4565 22.1526 54.5366 21.3282 54.5366 20.155C54.5366 18.9663 55.4565 18.1565 56.5257 18.1565C57.5949 18.1565 58.5189 18.9663 58.5189 20.155C58.5189 21.3282 57.5949 22.1526 56.5257 22.1526V22.1526ZM48.8008 16.8583C46.8481 16.8583 45.2604 18.2437 45.2604 20.155C45.2604 22.0508 46.8481 23.4507 48.8008 23.4507C50.7525 23.4507 52.3412 22.0508 52.3412 20.155C52.3412 18.2437 50.7525 16.8583 48.8008 16.8583ZM48.8008 22.1526C47.7306 22.1526 46.8076 21.3282 46.8076 20.155C46.8076 18.9663 47.7306 18.1565 48.8008 18.1565C49.87 18.1565 50.7898 18.9663 50.7898 20.155C50.7898 21.3282 49.87 22.1526 48.8008 22.1526ZM39.6085 17.8688V19.2696H43.1894C43.0846 20.0523 42.8046 20.6278 42.3753 21.0288C41.8526 21.5132 41.0386 22.0508 39.6085 22.0508C37.4048 22.0508 35.6792 20.3894 35.6792 18.3308C35.6792 16.2723 37.4048 14.6108 39.6085 14.6108C40.8001 14.6108 41.667 15.0458 42.3069 15.6096L43.3636 14.6225C42.4687 13.8242 41.2781 13.211 39.6085 13.211C36.5866 13.211 34.0469 15.5079 34.0469 18.3308C34.0469 21.1538 36.5866 23.4507 39.6085 23.4507C41.2418 23.4507 42.4686 22.9508 43.4331 22.0131C44.4214 21.0898 44.7294 19.7917 44.7294 18.7435C44.7294 18.418 44.7004 18.1187 44.6485 17.8688H39.6085ZM77.1969 18.9547C76.9055 18.2175 76.0064 16.8583 74.175 16.8583C72.3602 16.8583 70.8492 18.1943 70.8492 20.155C70.8492 22.0014 72.3446 23.4507 74.3492 23.4507C75.9701 23.4507 76.9055 22.5275 77.2903 21.9898L76.0873 21.241C75.686 21.7893 75.1395 22.1526 74.3492 22.1526C73.5642 22.1526 73.0011 21.8164 72.6402 21.1538L77.3597 19.3296L77.1969 18.9547V18.9547ZM72.3851 20.0523C72.3446 18.7813 73.4418 18.1303 74.2279 18.1303C74.8439 18.1303 75.3666 18.418 75.5408 18.8298L72.3851 20.0523V20.0523ZM68.5491 23.2502H70.1005V13.5627H68.5491V23.2502ZM66.0083 17.5927H65.9565C65.608 17.2071 64.9433 16.8583 64.1012 16.8583C62.3341 16.8583 60.7184 18.3076 60.7184 20.1657C60.7184 22.0131 62.3341 23.4507 64.1012 23.4507C64.9433 23.4507 65.608 23.099 65.9565 22.7018H66.0083V23.1746C66.0083 24.4349 65.2876 25.1121 64.1251 25.1121C63.1772 25.1121 62.5892 24.4727 62.3466 23.9351L60.9974 24.4611C61.3863 25.3349 62.416 26.4102 64.1251 26.4102C65.944 26.4102 67.4789 25.4105 67.4789 22.9779V17.0589H66.0083V17.5927V17.5927ZM64.234 22.1526C63.1648 22.1526 62.2698 21.3165 62.2698 20.1657C62.2698 19.0041 63.1648 18.1565 64.234 18.1565C65.2876 18.1565 66.1183 19.0041 66.1183 20.1657C66.1183 21.3165 65.2876 22.1526 64.234 22.1526V22.1526ZM84.4603 13.5627H80.7498V23.2502H82.2971V19.5796H84.4603C86.1787 19.5796 87.8639 18.418 87.8639 16.5706C87.8639 14.7242 86.1746 13.5627 84.4603 13.5627V13.5627ZM84.5008 18.232H82.2971V14.9102H84.5008C85.656 14.9102 86.3156 15.8063 86.3156 16.5706C86.3156 17.3204 85.656 18.232 84.5008 18.232ZM94.0654 16.8399C92.9474 16.8399 91.7849 17.3011 91.3069 18.3231L92.6799 18.8608C92.9755 18.3231 93.5189 18.1487 94.0934 18.1487C94.896 18.1487 95.7101 18.5992 95.7226 19.3945V19.4963C95.4426 19.3451 94.8432 19.1213 94.1058 19.1213C92.627 19.1213 91.1202 19.8818 91.1202 21.301C91.1202 22.5992 92.3314 23.4352 93.6931 23.4352C94.7343 23.4352 95.3088 22.9963 95.6697 22.4858H95.7226V23.2347H97.2169V19.5185C97.2169 17.8009 95.8439 16.8399 94.0654 16.8399ZM93.8787 22.1487C93.3726 22.1487 92.6674 21.9143 92.6674 21.3282C92.6674 20.5783 93.5469 20.2906 94.308 20.2906C94.9894 20.2906 95.3088 20.4311 95.7226 20.6161C95.6012 21.5132 94.7747 22.1487 93.8787 22.1487V22.1487ZM102.661 17.0521L100.883 21.2516H100.83L98.9913 17.0521H97.3227L100.085 22.9208L98.5091 26.1864H100.126L104.383 17.0521H102.661V17.0521ZM88.7143 23.2502H90.2657V13.5627H88.7143V23.2502Z" fill="white"/>
<path d="M8.6572 5.84268C8.4135 6.08099 8.27246 6.45202 8.27246 6.93252V24.0716C8.27246 24.5521 8.4135 24.9232 8.6572 25.1615L8.71735 25.2138L18.9985 15.6135V15.3868L8.71735 5.78649L8.6572 5.84268Z" fill="url(#paint0_linear_1141_4044)"/>
<path d="M22.4213 18.8147L18.998 15.613V15.3863L22.4255 12.1846L22.5022 12.2262L26.5612 14.3836C27.7195 14.9959 27.7195 16.0034 26.5612 16.6195L22.5022 18.773L22.4213 18.8147V18.8147Z" fill="url(#paint1_linear_1141_4044)"/>
<path d="M22.5027 18.7733L18.9986 15.4999L8.65723 25.1612C9.04197 25.539 9.66937 25.5846 10.3829 25.2068L22.5027 18.7733" fill="url(#paint2_linear_1141_4044)"/>
<path d="M22.5027 12.2264L10.3829 5.79294C9.66937 5.41901 9.04197 5.46454 8.65723 5.84235L18.9986 15.4998L22.5027 12.2264Z" fill="url(#paint3_linear_1141_4044)"/>
<defs>
<linearGradient id="paint0_linear_1141_4044" x1="18.0857" y1="24.2501" x2="5.10944" y2="10.3592" gradientUnits="userSpaceOnUse">
<stop stop-color="#FBFDFF"/>
<stop offset="0.0066" stop-color="white"/>
<stop offset="0.2601" stop-color="#FEFFFF"/>
<stop offset="0.5122" stop-color="#FCFEFF"/>
<stop offset="0.7604" stop-color="#FEFFFF"/>
<stop offset="1" stop-color="#FDFFFF"/>
</linearGradient>
<linearGradient id="paint1_linear_1141_4044" x1="28.0695" y1="15.4985" x2="7.99509" y2="15.4985" gradientUnits="userSpaceOnUse">
<stop stop-color="#FFFFFC"/>
<stop offset="0.4087" stop-color="#FFFEFC"/>
<stop offset="0.7754" stop-color="#FFFEFC"/>
<stop offset="1" stop-color="#FFFFFE"/>
</linearGradient>
<linearGradient id="paint2_linear_1141_4044" x1="20.5973" y1="13.7204" x2="3.00041" y2="-5.11683" gradientUnits="userSpaceOnUse">
<stop stop-color="#FFFDFD"/>
<stop offset="1" stop-color="#C31162"/>
</linearGradient>
<linearGradient id="paint3_linear_1141_4044" x1="6.0541" y1="30.8633" x2="13.9119" y2="22.4517" gradientUnits="userSpaceOnUse">
<stop stop-color="#FCFFFE"/>
<stop offset="0.0685" stop-color="white"/>
<stop offset="0.4762" stop-color="#FCFFFD"/>
<stop offset="0.8009" stop-color="#FCFFFD"/>
<stop offset="1" stop-color="#FDFFFE"/>
</linearGradient>
</defs>
</svg>
