<svg width="20" height="24" viewBox="0 0 20 24" fill="none" xmlns="http://www.w3.org/2000/svg">
<path d="M16.7917 10C16.7917 17 10.0101 23 10.0101 23C10.0101 23 3.22852 17 3.22852 10C3.22852 7.61305 3.943 5.32387 5.21479 3.63604C6.48658 1.94821 8.2115 1 10.0101 1C11.8087 1 13.5336 1.94821 14.8054 3.63604C16.0772 5.32387 16.7917 7.61305 16.7917 10Z" stroke="black" stroke-width="2" stroke-linecap="round" stroke-linejoin="round"/>
<path d="M10.0095 13C11.258 13 12.2701 11.6569 12.2701 10C12.2701 8.34315 11.258 7 10.0095 7C8.76109 7 7.74902 8.34315 7.74902 10C7.74902 11.6569 8.76109 13 10.0095 13Z" stroke="black" stroke-width="2" stroke-linecap="round" stroke-linejoin="round"/>
</svg>
