<svg width="26" height="24" viewBox="0 0 26 24" fill="none" xmlns="http://www.w3.org/2000/svg">
<path d="M4.55389 23.1443V21.636C4.56145 21.5092 4.5458 21.3819 4.508 21.2626C4.47019 21.1434 4.41109 21.035 4.33463 20.9446C4.25818 20.8542 4.16613 20.7839 4.06462 20.7384C3.96311 20.6929 3.85449 20.6733 3.74598 20.6808C3.60397 20.67 3.46207 20.7039 3.33508 20.7791C3.2081 20.8542 3.10067 20.9679 3.024 21.1081C2.95412 20.9721 2.85418 20.8605 2.73468 20.7853C2.61518 20.7101 2.48056 20.674 2.345 20.6808C2.22682 20.6739 2.10915 20.7031 2.00362 20.7657C1.89809 20.8283 1.80837 20.9221 1.74334 21.0378V20.7411H1.29639V23.1443H1.74762V21.812C1.73786 21.7298 1.74379 21.646 1.76498 21.5668C1.78617 21.4876 1.82209 21.4149 1.87016 21.3538C1.91823 21.2928 1.97726 21.245 2.04301 21.2138C2.10876 21.1826 2.1796 21.1688 2.25044 21.1735C2.54696 21.1735 2.69739 21.3997 2.69739 21.8069V23.1443H3.14863V21.812C3.13961 21.7299 3.14605 21.6465 3.1675 21.5677C3.18896 21.4889 3.22491 21.4165 3.27283 21.3556C3.32075 21.2948 3.37948 21.2469 3.44488 21.2155C3.51029 21.184 3.58079 21.1697 3.65144 21.1735C3.95654 21.1735 4.10265 21.3997 4.10265 21.8069V23.1443H4.55389ZM11.2322 20.7411H10.5016V20.0122H10.0504V20.7411H9.63353V21.2187H10.0504V22.3147C10.0504 22.8728 10.2352 23.2046 10.7638 23.2046C10.9612 23.2053 11.1549 23.1408 11.3224 23.0186L11.1935 22.5711C11.0737 22.6548 10.9376 22.7015 10.7982 22.7069C10.5747 22.7069 10.5016 22.546 10.5016 22.3047V21.2187H11.2322V20.7411ZM15.0441 20.6808C14.9351 20.677 14.8273 20.7077 14.732 20.7697C14.6367 20.8316 14.5575 20.9225 14.5026 21.0327V20.7411H14.0599V23.1443H14.5069V21.7969C14.5069 21.3997 14.653 21.1785 14.9453 21.1785C15.0409 21.177 15.1358 21.1975 15.2246 21.2389L15.3621 20.7461C15.26 20.7034 15.1525 20.6813 15.0441 20.6808V20.6808ZM9.28115 20.9322C9.02817 20.7562 8.73729 20.6689 8.44313 20.6808C7.92313 20.6808 7.58794 20.9724 7.58794 21.45C7.58794 21.8422 7.83719 22.0835 8.29699 22.1589L8.50758 22.1941C8.75253 22.2342 8.86858 22.3097 8.86858 22.4454C8.86858 22.6314 8.70525 22.7371 8.40015 22.7371C8.15472 22.7453 7.91405 22.6568 7.71684 22.4856L7.50628 22.8929C7.76661 23.1056 8.07844 23.2149 8.39585 23.2046C8.9889 23.2046 9.33268 22.8778 9.33268 22.4203C9.33268 21.998 9.06197 21.7768 8.61504 21.7013L8.40447 21.6662C8.21106 21.636 8.05637 21.5908 8.05637 21.4299C8.05637 21.2539 8.20244 21.1483 8.44743 21.1483C8.67237 21.1523 8.89275 21.2233 9.08776 21.3545L9.28115 20.9322ZM21.254 20.6808C21.145 20.677 21.0372 20.7077 20.9419 20.7697C20.8466 20.8316 20.7673 20.9225 20.7125 21.0327V20.7411H20.2698V23.1443H20.7168V21.7969C20.7168 21.3997 20.8629 21.1785 21.1551 21.1785C21.2507 21.177 21.3456 21.1975 21.4345 21.2389L21.572 20.7461C21.4699 20.7034 21.3624 20.6813 21.254 20.6808V20.6808ZM15.4953 21.9427C15.4894 22.112 15.5138 22.2808 15.567 22.4384C15.6202 22.596 15.701 22.7389 15.8042 22.8577C15.9074 22.9766 16.0308 23.0689 16.1663 23.1286C16.3019 23.1883 16.4466 23.2142 16.5912 23.2046C16.8595 23.2204 17.1232 23.1182 17.3303 22.918L17.1155 22.4957C16.961 22.6335 16.7726 22.7093 16.5783 22.7119C16.4108 22.7 16.2535 22.6138 16.1385 22.4708C16.0235 22.3279 15.9595 22.139 15.9595 21.9427C15.9595 21.7464 16.0235 21.5575 16.1385 21.4145C16.2535 21.2716 16.4108 21.1854 16.5783 21.1735C16.7726 21.1761 16.961 21.2519 17.1155 21.3897L17.3303 20.9674C17.1232 20.7673 16.8595 20.665 16.5912 20.6808C16.4466 20.6712 16.3019 20.6971 16.1664 20.7568C16.0308 20.8165 15.9075 20.9088 15.8043 21.0277C15.701 21.1465 15.6202 21.2893 15.567 21.4469C15.5138 21.6045 15.4894 21.7734 15.4953 21.9427V21.9427ZM19.6811 21.9427V20.7411H19.2341V21.0327C19.1578 20.9177 19.0591 20.8257 18.9462 20.7645C18.8333 20.7033 18.7095 20.6746 18.5852 20.6808C18.3083 20.6967 18.0472 20.8366 17.856 21.0715C17.6648 21.3064 17.5581 21.6183 17.5581 21.9427C17.5581 22.2671 17.6648 22.579 17.856 22.8139C18.0472 23.0489 18.3083 23.1887 18.5852 23.2046C18.7095 23.2108 18.8333 23.1821 18.9462 23.1209C19.0591 23.0596 19.1578 22.9677 19.2341 22.8527V23.1443H19.6811V21.9427ZM18.0179 21.9427C18.0249 21.8008 18.0671 21.6645 18.1395 21.5505C18.2119 21.4364 18.3112 21.3496 18.4252 21.3008C18.5392 21.252 18.663 21.2433 18.7812 21.2758C18.8994 21.3083 19.0069 21.3806 19.0904 21.4837C19.1739 21.5868 19.2298 21.7162 19.2512 21.856C19.2726 21.9958 19.2585 22.1399 19.2108 22.2705C19.163 22.4011 19.0836 22.5125 18.9824 22.5909C18.8812 22.6693 18.7625 22.7114 18.6411 22.7119C18.556 22.7132 18.4716 22.6939 18.3932 22.6552C18.3147 22.6165 18.244 22.5592 18.1855 22.4869C18.1269 22.4147 18.0818 22.329 18.053 22.2353C18.0242 22.1417 18.0122 22.042 18.0179 21.9427V21.9427ZM12.6246 20.6808C12.3459 20.698 12.0837 20.8407 11.893 21.0792C11.7023 21.3176 11.598 21.6332 11.6019 21.9596C11.6058 22.2861 11.7176 22.5982 11.9139 22.8303C12.1102 23.0624 12.3757 23.1966 12.6547 23.2046C12.9613 23.2172 13.2611 23.0973 13.497 22.8677L13.2778 22.4806C13.1081 22.6398 12.8979 22.7282 12.6805 22.732C12.5328 22.7465 12.3861 22.6933 12.2714 22.5835C12.1567 22.4737 12.083 22.316 12.0659 22.1438H13.5915C13.5958 22.0784 13.6001 22.0131 13.6001 21.9427C13.5958 21.1936 13.2005 20.6808 12.6246 20.6808V20.6808ZM12.616 21.1483C12.751 21.1453 12.8815 21.2049 12.979 21.3143C13.0765 21.4236 13.1329 21.5736 13.136 21.7315H12.0702C12.0781 21.5702 12.1396 21.4189 12.2415 21.3099C12.3435 21.2009 12.4779 21.1429 12.616 21.1483V21.1483ZM23.8282 21.9427V19.7759H23.3812V21.0327C23.3049 20.9177 23.2062 20.8257 23.0933 20.7645C22.9804 20.7033 22.8566 20.6746 22.7323 20.6808C22.4554 20.6967 22.1942 20.8366 22.003 21.0715C21.8118 21.3064 21.7052 21.6183 21.7052 21.9427C21.7052 22.2671 21.8118 22.579 22.003 22.814C22.1942 23.0489 22.4554 23.1888 22.7323 23.2046C22.8566 23.2108 22.9804 23.1821 23.0933 23.1209C23.2062 23.0596 23.3049 22.9677 23.3812 22.8527V23.1443H23.8282V21.9427ZM24.5732 22.796C24.6009 22.7958 24.6284 22.8022 24.654 22.8148C24.6786 22.8268 24.7011 22.8442 24.7201 22.866C24.739 22.8878 24.7541 22.9136 24.7646 22.9421C24.7753 22.9714 24.7809 23.0029 24.7809 23.0347C24.7809 23.0666 24.7753 23.0981 24.7646 23.1274C24.754 23.1557 24.7389 23.1815 24.7201 23.2032C24.701 23.225 24.6786 23.2425 24.654 23.2547C24.6285 23.2675 24.601 23.274 24.5732 23.2737C24.5323 23.2742 24.4922 23.2606 24.4579 23.2346C24.4236 23.2085 24.3966 23.1713 24.3803 23.1274C24.3696 23.0981 24.364 23.0666 24.364 23.0347C24.364 23.0029 24.3696 22.9714 24.3803 22.9421C24.3908 22.9136 24.4058 22.8878 24.4246 22.866C24.4436 22.844 24.4661 22.8266 24.4909 22.8148C24.517 22.8021 24.545 22.7958 24.5732 22.796V22.796ZM24.5732 23.221C24.5944 23.2212 24.6153 23.2163 24.6348 23.2064C24.6534 23.1969 24.6704 23.1834 24.6848 23.1666C24.7145 23.1315 24.7311 23.0842 24.7311 23.0348C24.7311 22.9855 24.7145 22.9382 24.6848 22.9031C24.6704 22.8863 24.6535 22.8729 24.6348 22.8636C24.6153 22.854 24.5943 22.8491 24.5732 22.8493C24.5516 22.8491 24.5303 22.854 24.5104 22.8636C24.4914 22.8728 24.4742 22.8862 24.4596 22.9031C24.4299 22.9382 24.4133 22.9855 24.4133 23.0348C24.4133 23.0842 24.4299 23.1315 24.4596 23.1666C24.4742 23.1836 24.4914 23.1971 24.5104 23.2064C24.5303 23.2162 24.5516 23.2212 24.5732 23.221V23.221ZM24.5852 22.923C24.6053 22.9215 24.6252 22.9282 24.6415 22.9421C24.648 22.9483 24.6532 22.9563 24.6566 22.9653C24.66 22.9743 24.6616 22.9841 24.6613 22.9939C24.6615 23.0023 24.6602 23.0107 24.6575 23.0185C24.6548 23.0263 24.6507 23.0334 24.6455 23.0392C24.6331 23.0522 24.6173 23.0599 24.6007 23.0612L24.6628 23.1449H24.6143L24.5567 23.0618H24.5382V23.1449H24.4977V22.923H24.5852ZM24.5382 22.9646V23.0238H24.5847C24.5937 23.0243 24.6025 23.0217 24.6103 23.0164C24.6134 23.014 24.6159 23.0106 24.6176 23.0066C24.6192 23.0027 24.62 22.9983 24.6197 22.9939C24.6199 22.9896 24.6192 22.9853 24.6175 22.9814C24.6158 22.9775 24.6133 22.9743 24.6103 22.9719C24.6025 22.9666 24.5937 22.9641 24.5847 22.9646H24.5382ZM22.165 21.9427C22.172 21.8008 22.2142 21.6645 22.2866 21.5505C22.359 21.4365 22.4583 21.3497 22.5723 21.3009C22.6864 21.2521 22.8101 21.2434 22.9283 21.2759C23.0465 21.3084 23.154 21.3807 23.2375 21.4837C23.321 21.5868 23.3769 21.7163 23.3983 21.8561C23.4196 21.9959 23.4056 22.14 23.3578 22.2706C23.31 22.4011 23.2306 22.5125 23.1294 22.5909C23.0282 22.6693 22.9096 22.7114 22.7882 22.7119C22.7031 22.7132 22.6186 22.6939 22.5402 22.6552C22.4618 22.6165 22.3911 22.5592 22.3326 22.4869C22.274 22.4147 22.2289 22.329 22.2001 22.2353C22.1713 22.1416 22.1593 22.042 22.165 21.9427V21.9427ZM7.07224 21.9427V20.7411H6.62528V21.0327C6.54899 20.9177 6.45027 20.8257 6.33737 20.7645C6.22447 20.7033 6.10068 20.6746 5.97635 20.6808C5.69942 20.6967 5.43831 20.8366 5.24711 21.0715C5.05591 21.3064 4.94927 21.6183 4.94927 21.9427C4.94927 22.2671 5.05591 22.579 5.24711 22.8139C5.43831 23.0489 5.69942 23.1887 5.97635 23.2046C6.10068 23.2108 6.22447 23.1821 6.33737 23.1209C6.45027 23.0596 6.54899 22.9677 6.62528 22.8527V23.1443H7.07224V21.9427ZM5.40912 21.9427C5.41606 21.8008 5.45832 21.6645 5.5307 21.5505C5.60308 21.4365 5.7024 21.3497 5.81642 21.3009C5.93044 21.2521 6.05418 21.2434 6.17237 21.2759C6.29056 21.3084 6.39804 21.3807 6.48155 21.4837C6.56506 21.5868 6.62096 21.7163 6.64234 21.8561C6.66373 21.9959 6.64966 22.14 6.60189 22.2706C6.55412 22.4011 6.47472 22.5125 6.3735 22.5909C6.27227 22.6694 6.15364 22.7114 6.03223 22.7119C5.94713 22.7132 5.86271 22.6939 5.78431 22.6552C5.7059 22.6165 5.6352 22.5592 5.57666 22.4869C5.51811 22.4147 5.47301 22.329 5.44417 22.2353C5.41534 22.1416 5.4034 22.042 5.40912 21.9427V21.9427Z" fill="white"/>
<path d="M15.9023 2.42676H9.13281V16.6581H15.9023V2.42676Z" fill="white"/>
<path d="M9.56261 9.54293C9.56154 8.17234 9.82703 6.81944 10.339 5.58664C10.8509 4.35383 11.5959 3.27343 12.5175 2.42724C11.3762 1.37776 10.0056 0.725112 8.56218 0.543878C7.1188 0.362644 5.66096 0.660142 4.35528 1.40237C3.0496 2.14459 1.94876 3.30159 1.17859 4.74114C0.408427 6.18068 0 7.84467 0 9.54293C0 11.2412 0.408427 12.9052 1.17859 14.3447C1.94876 15.7843 3.0496 16.9413 4.35528 17.6835C5.66096 18.4257 7.1188 18.7232 8.56218 18.542C10.0056 18.3607 11.3762 17.7081 12.5175 16.6586C11.5959 15.8124 10.8509 14.732 10.339 13.4992C9.82703 12.2664 9.56155 10.9135 9.56261 9.54293V9.54293Z" fill="white"/>
<path d="M25.0347 9.54292C25.0348 11.2412 24.6264 12.9051 23.8563 14.3447C23.0861 15.7842 21.9853 16.9412 20.6797 17.6835C19.374 18.4257 17.9162 18.7232 16.4728 18.542C15.0295 18.3607 13.6588 17.7081 12.5176 16.6586C13.4384 15.8116 14.1828 14.731 14.6946 13.4984C15.2065 12.2658 15.4725 10.9133 15.4725 9.54292C15.4725 8.17256 15.2065 6.82008 14.6946 5.58747C14.1828 4.35486 13.4384 3.27428 12.5176 2.42724C13.6588 1.37776 15.0295 0.725108 16.4728 0.543876C17.9162 0.362644 19.374 0.660147 20.6797 1.40238C21.9853 2.14461 23.0861 3.30162 23.8563 4.74117C24.6264 6.18071 25.0348 7.84469 25.0347 9.54292V9.54292Z" fill="white"/>
<path d="M24.2969 15.151V14.8596H24.3974V14.8003H24.1416V14.8596H24.2421V15.151H24.2969ZM24.7935 15.151V14.7997H24.7151L24.6249 15.0413L24.5347 14.7997H24.4563V15.151H24.5116V14.886L24.5962 15.1145H24.6536L24.7382 14.8854V15.151H24.7935Z" fill="white"/>
</svg>
