<svg width="18" height="22" viewBox="0 0 18 22" fill="none" xmlns="http://www.w3.org/2000/svg">
<path d="M16.5454 15.9201V18.9201C16.5463 19.1986 16.5033 19.4743 16.4192 19.7294C16.3352 19.9846 16.2118 20.2137 16.0572 20.402C15.9026 20.5902 15.72 20.7336 15.5212 20.8228C15.3224 20.912 15.1118 20.9452 14.9028 20.9201C12.5841 20.5857 10.3569 19.5342 8.4 17.8501C6.5794 16.3148 5.03584 14.2663 3.87896 11.8501C2.60551 9.2413 1.81302 6.27109 1.56569 3.1801C1.54686 2.90356 1.57162 2.62486 1.6384 2.36172C1.70518 2.09859 1.81251 1.85679 1.95357 1.65172C2.09462 1.44665 2.2663 1.28281 2.45768 1.17062C2.64906 1.05843 2.85595 1.00036 3.06517 1.0001H5.32569C5.69137 0.995321 6.04589 1.16718 6.32316 1.48363C6.60042 1.80008 6.78153 2.23954 6.83271 2.7201C6.92812 3.68016 7.10506 4.62282 7.36016 5.5301C7.46154 5.88802 7.48348 6.27701 7.42339 6.65098C7.36329 7.02494 7.22368 7.36821 7.02108 7.6401L6.06413 8.9101C7.13679 11.4136 8.69874 13.4865 10.5852 14.9101L11.5421 13.6401C11.747 13.3712 12.0057 13.1859 12.2874 13.1062C12.5692 13.0264 12.8623 13.0556 13.132 13.1901C13.8157 13.5286 14.526 13.7635 15.2494 13.8901C15.6154 13.9586 15.9497 14.2033 16.1887 14.5776C16.4276 14.9519 16.5546 15.4297 16.5454 15.9201Z" stroke="black" stroke-width="2" stroke-linecap="round" stroke-linejoin="round"/>
</svg>
