<svg width="39" height="15" viewBox="0 0 39 15" fill="none" xmlns="http://www.w3.org/2000/svg">
<path d="M38.0084 7.94224C38.0084 5.45335 36.7025 3.48946 34.2066 3.48946C31.7001 3.48946 30.1836 5.45335 30.1836 7.92279C30.1836 10.8492 31.974 12.327 34.5436 12.327C35.7968 12.327 36.7446 12.0645 37.4608 11.695V9.75057C36.7446 10.0811 35.9232 10.2853 34.8806 10.2853C33.8591 10.2853 32.9534 9.95474 32.8375 8.80751H37.9873C37.9873 8.68113 38.0084 8.17557 38.0084 7.94224ZM32.8059 7.01863C32.8059 5.92001 33.5326 5.46307 34.1961 5.46307C34.8385 5.46307 35.523 5.92001 35.523 7.01863H32.8059ZM26.1186 3.48946C25.0865 3.48946 24.423 3.93668 24.0544 4.24779L23.9175 3.64501H21.6006V14.9811L24.2335 14.4658L24.244 11.7145C24.6231 11.9672 25.1813 12.327 26.108 12.327C27.9931 12.327 29.7097 10.927 29.7097 7.84501C29.6992 5.02557 27.9615 3.48946 26.1186 3.48946ZM25.4867 10.1881C24.8653 10.1881 24.4967 9.9839 24.244 9.73113L24.2335 6.12418C24.5073 5.84224 24.8864 5.64779 25.4867 5.64779C26.445 5.64779 27.1085 6.63946 27.1085 7.91307C27.1085 9.21585 26.4556 10.1881 25.4867 10.1881ZM17.9779 2.91585L20.6212 2.39085V0.417236L17.9779 0.932514V2.91585ZM17.9779 3.65474H20.6212V12.1617H17.9779V3.65474ZM15.1449 4.37418L14.9764 3.65474H12.7017V12.1617H15.3345V6.3964C15.9558 5.64779 17.009 5.7839 17.3354 5.89085V3.65474C16.9984 3.53807 15.7663 3.32418 15.1449 4.37418ZM9.87929 1.54501L7.30965 2.05057L7.29912 9.83807C7.29912 11.277 8.46809 12.3367 10.0267 12.3367C10.8903 12.3367 11.5222 12.1908 11.8697 12.0158V10.0422C11.5327 10.1686 9.86875 10.6158 9.86875 9.17696V5.72557H11.8697V3.65474H9.86875L9.87929 1.54501ZM2.76012 6.12418C2.76012 5.74501 3.09712 5.59918 3.65528 5.59918C4.45566 5.59918 5.46667 5.82279 6.26705 6.2214V3.93668C5.39295 3.61585 4.52938 3.48946 3.65528 3.48946C1.51743 3.48946 0.0957031 4.52001 0.0957031 6.24085C0.0957031 8.92418 4.0976 8.4964 4.0976 9.65335C4.0976 10.1006 3.67635 10.2464 3.08659 10.2464C2.2125 10.2464 1.09618 9.91585 0.211547 9.46863V11.7825C1.19096 12.1714 2.1809 12.3367 3.08659 12.3367C5.2771 12.3367 6.78308 11.3353 6.78308 9.59501C6.77255 6.69779 2.76012 7.21307 2.76012 6.12418Z" fill="white"/>
</svg>
