<svg width="38" height="14" viewBox="0 0 38 14" fill="none" xmlns="http://www.w3.org/2000/svg">
<path d="M2.68815 1.81643L3.4175 3.45222H1.96297L2.68815 1.81643Z" fill="white"/>
<path d="M19.4851 2.80089C19.3386 2.8827 19.1654 2.88542 18.958 2.88542H17.6634V1.97402H18.9756C19.1613 1.97402 19.355 1.9817 19.4809 2.04803C19.6191 2.10781 19.7047 2.23504 19.7047 2.41079C19.7047 2.59012 19.6233 2.73443 19.4851 2.80089Z" fill="white"/>
<path d="M27.9827 1.81643L28.7201 3.45222H27.2493L27.9827 1.81643Z" fill="white"/>
<path fill-rule="evenodd" clip-rule="evenodd" d="M0 6.02875H1.82083L2.23136 5.11735H3.15045L3.5599 6.02875H7.14226V5.33196L7.46203 6.03172H9.32172L9.64148 5.32156V6.02875H18.5443L18.5402 4.53269H18.7124C18.833 4.53653 18.8683 4.5468 18.8683 4.7301V6.02875H23.4729V5.68048C23.8443 5.86365 24.4219 6.02875 25.1821 6.02875H27.1192L27.5338 5.11735H28.4529L28.8583 6.02875H32.5913V5.16302L33.1566 6.02875H36.1479V0.305908H33.1875V0.981783L32.7729 0.305908H29.7352V0.981783L29.3545 0.305908H25.2512C24.5643 0.305908 23.9606 0.394152 23.4729 0.640071V0.305908H20.6412V0.640071C20.3309 0.386602 19.908 0.305908 19.4377 0.305908H9.09272L8.3986 1.78402L7.68578 0.305908H4.42736V0.981783L4.0694 0.305908H1.29049L0 3.02686V6.02875ZM15.8594 5.22279H12.2997V1.11952H15.8594V1.97399H13.3653V2.7136H15.7996V3.5547H13.3653V4.37414H15.8594V5.22279ZM10.4131 5.22279H11.5053V1.11952H9.73117L8.4501 3.9031L7.05553 1.11952H5.31632V5.00447L3.50396 1.11952H1.92074L0.0125011 5.22279H1.16987L1.58349 4.30756H3.80221L4.21167 5.22279H6.37902V2.00629L7.92823 5.22279H8.86385L10.409 2.00914L10.4131 5.22279ZM20.8786 2.22461C20.8786 2.87883 20.4042 3.21683 20.1277 3.31831C20.3609 3.4 20.56 3.54431 20.6548 3.66386C20.8053 3.86795 20.8312 4.05025 20.8312 4.41672V5.22279H19.7564L19.7524 4.70534C19.7524 4.68031 19.7527 4.65417 19.7529 4.62719C19.7553 4.38806 19.7584 4.08334 19.5842 3.90595C19.4285 3.76164 19.1911 3.73032 18.8075 3.73032H17.6636V5.22279H16.598V1.11952H19.049C19.5936 1.11952 19.9948 1.13277 20.3393 1.31606C20.6765 1.49936 20.8786 1.76693 20.8786 2.22461ZM22.5839 5.22279H21.4966V1.11952H22.5839V5.22279ZM35.1981 5.22279H33.688L31.6681 2.14305V5.22279H29.498L29.0833 4.30756H26.8697L26.4673 5.22279H25.2204C24.7024 5.22279 24.0466 5.11735 23.6752 4.76895C23.3007 4.42056 23.1059 3.94864 23.1059 3.20247C23.1059 2.59392 23.2223 2.0376 23.6803 1.598C24.0249 1.27052 24.5643 1.11952 25.2987 1.11952H26.3303V1.99874H25.3203C24.9314 1.99874 24.7118 2.05196 24.5003 2.24182C24.3187 2.41459 24.194 2.7412 24.194 3.17128C24.194 3.61089 24.2889 3.92785 24.487 4.13491C24.6511 4.29729 24.9492 4.34654 25.2297 4.34654H25.7083L27.2101 1.11965H28.8068L30.611 5.00076V1.11965H32.2334L34.1066 3.97736V1.11965H35.1981V5.22279Z" fill="white"/>
<path d="M23.5203 9.9527C23.7277 9.9527 23.904 9.94602 24.0465 9.86817C24.1846 9.79131 24.2672 9.64985 24.2672 9.47423C24.2672 9.29861 24.1846 9.1715 24.0465 9.10504C23.9175 9.03462 23.7277 9.03091 23.5379 9.03091H22.2258V9.9527H23.5203Z" fill="white"/>
<path d="M14.7721 10.2412L16.4082 11.913V8.62249L14.7721 10.2412Z" fill="white"/>
<path d="M9.56308 11.4309H12.1831L13.4003 10.2268L12.2347 9.03078H9.56308V9.77696H11.9026V10.6143H9.56308V11.4309Z" fill="white"/>
<path d="M17.4695 10.0761H18.8466C19.2561 10.0761 19.5107 9.88909 19.5107 9.53413C19.5107 9.17522 19.2437 9.03091 18.859 9.03091H17.4695V10.0761Z" fill="white"/>
<path fill-rule="evenodd" clip-rule="evenodd" d="M37.9127 11.7612C37.6538 12.1096 37.1495 12.2863 36.4666 12.2863H34.4087V11.4062H36.4583C36.6616 11.4062 36.8039 11.3815 36.8895 11.3046C36.9638 11.2411 37.0155 11.1489 37.0155 11.0369C37.0155 10.9173 36.9638 10.8224 36.8854 10.7654C36.808 10.7028 36.6955 10.6744 36.5099 10.6744C36.4445 10.6723 36.378 10.6706 36.3108 10.669C35.3514 10.645 34.2611 10.6179 34.2611 9.40404C34.2611 8.80874 34.6717 8.18212 35.79 8.18212H37.9126V7.36552H35.9405C35.3453 7.36552 34.913 7.49671 34.6068 7.70068V7.36552H31.6898C31.2233 7.36552 30.6758 7.47196 30.4168 7.70068V7.36552H25.2078V7.70068C24.7932 7.42543 24.0937 7.36552 23.7708 7.36552H20.3349V7.70068C20.0069 7.40835 19.2776 7.36552 18.833 7.36552H14.9877L14.1077 8.24202L13.2835 7.36552H7.53934V13.0923H13.1754L14.0821 12.202L14.9363 13.0923L18.4104 13.0952V11.748H18.752C19.2129 11.7546 19.7566 11.7375 20.2362 11.5466V13.0922H23.1017V11.5996H23.24C23.4164 11.5996 23.4337 11.6063 23.4337 11.7685V13.0921H32.1386C32.6913 13.0921 33.269 12.9619 33.5889 12.7256V13.0921H36.35C36.9246 13.0921 37.4858 13.0179 37.9127 12.8281V11.7612ZM33.662 10.1216C33.8695 10.3193 33.9807 10.5688 33.9807 10.9912C33.9807 11.8741 33.3814 12.2862 32.3067 12.2862H30.2312V11.4062H32.2984C32.5005 11.4062 32.6438 11.3815 32.7337 11.3045C32.807 11.2411 32.8595 11.1489 32.8595 11.0368C32.8595 10.9173 32.8026 10.8224 32.7295 10.7654C32.648 10.7028 32.5356 10.6743 32.35 10.6743C32.2848 10.6723 32.2184 10.6706 32.1514 10.669C31.1954 10.645 30.1055 10.6178 30.1055 9.40403C30.1055 8.80872 30.5119 8.18211 31.629 8.18211H33.7653V9.05563H31.8105C31.6168 9.05563 31.4908 9.06232 31.3836 9.12977C31.2669 9.19623 31.2236 9.29487 31.2236 9.42507C31.2236 9.5799 31.3227 9.68522 31.4568 9.73077C31.5692 9.76678 31.6899 9.7773 31.8715 9.7773L32.4451 9.79153C33.0236 9.80453 33.4207 9.89661 33.662 10.1216ZM24.6901 10.3789C24.9273 10.4595 25.1212 10.6039 25.2121 10.7235C25.3625 10.9239 25.3843 11.1109 25.3886 11.4726V12.2862H24.3188V11.7727C24.3188 11.7481 24.319 11.7223 24.3193 11.6955C24.3217 11.4546 24.3248 11.1412 24.1465 10.9694C23.9908 10.8224 23.7535 10.7872 23.3647 10.7872H22.2259V12.2862H21.1552V8.18199H23.6154C24.1549 8.18199 24.5478 8.20389 24.8975 8.37568C25.2338 8.56268 25.4454 8.81888 25.4454 9.28707C25.4452 9.94216 24.9706 10.2764 24.6901 10.3789ZM26.0362 8.18198H29.5928V9.03076H27.0974V9.77693H29.5318V10.6143H27.0974V11.4309L29.5928 11.4346V12.2862H26.0362V8.18198ZM20.6548 9.5341C20.6548 10.6742 19.7306 10.9096 18.7991 10.9096H17.4695V12.2862H15.3983L14.0862 10.9276L12.7225 12.2862H8.50159V8.18198H12.7875L14.0985 9.5273L15.454 8.18198H18.859C19.7047 8.18198 20.6548 8.39746 20.6548 9.5341Z" fill="white"/>
<path d="M35.9706 9.05538H37.9127V10.2232C37.9109 10.2212 37.9092 10.2191 37.9075 10.217L37.902 10.2104L37.8991 10.2069L37.899 10.2068C37.8745 10.1772 37.8503 10.148 37.8139 10.1216C37.5767 9.89672 37.1876 9.80452 36.6049 9.79128L36.0273 9.77704C35.8498 9.77704 35.7291 9.76652 35.6166 9.73051C35.4785 9.68496 35.3836 9.57964 35.3836 9.42481C35.3836 9.29461 35.4269 9.19597 35.5393 9.12951C35.6478 9.06206 35.7767 9.05538 35.9706 9.05538Z" fill="white"/>
</svg>
