<svg width="30" height="12" viewBox="0 0 30 12" fill="none" xmlns="http://www.w3.org/2000/svg">
<path d="M14.8134 0.257514L12.8146 11.1895H10.397L12.396 0.257514H14.8134ZM24.9842 7.31643L26.2566 3.21125L26.9889 7.31643H24.9842ZM27.6825 11.1895H29.9179L27.965 0.257514H25.9029C25.4382 0.257514 25.0464 0.57273 24.8731 1.05883L21.2456 11.1895H23.7846L24.2886 9.55687H27.3897L27.6825 11.1895ZM21.3715 7.62058C21.382 4.73544 17.9623 4.57562 17.9852 3.28649C17.9925 2.8948 18.312 2.47755 19.0102 2.37084C19.3564 2.31871 20.3116 2.27642 21.3944 2.86013L21.8179 0.541012C21.2364 0.294888 20.4879 0.0578613 19.5567 0.0578613C17.1667 0.0578613 15.4855 1.54296 15.4721 3.67129C15.4568 5.24515 16.673 6.12269 17.5875 6.6469C18.5304 7.18267 18.8463 7.52616 18.8416 8.00488C18.8351 8.73834 18.0898 9.06314 17.3958 9.07544C16.1798 9.09757 15.4748 8.69089 14.913 8.38452L14.4742 10.7811C15.04 11.084 16.0824 11.3476 17.1619 11.3611C19.7027 11.3611 21.364 9.89347 21.3715 7.62058ZM11.359 0.257514L7.44191 11.1895H4.8868L2.95907 2.46501C2.84221 1.9285 2.74027 1.73131 2.38487 1.50461C1.80352 1.1353 0.843856 0.78984 0 0.574943L0.0571685 0.257514H4.17073C4.6947 0.257514 5.16612 0.665426 5.28613 1.37159L6.30444 7.69803L8.81919 0.257514H11.359Z" fill="#FDFDFF"/>
</svg>
